<?xml version="1.0" encoding="UTF-8"?>
<!DOCTYPE svg PUBLIC "-//W3C//DTD SVG 1.1//EN" "http://www.w3.org/Graphics/SVG/1.1/DTD/svg11.dtd">
<svg xmlns="http://www.w3.org/2000/svg" version="1.1" width="69px" height="43px" style="shape-rendering:geometricPrecision; text-rendering:geometricPrecision; image-rendering:optimizeQuality; fill-rule:evenodd; clip-rule:evenodd" xmlns:xlink="http://www.w3.org/1999/xlink">
<g><path style="opacity:0.868" fill="#f7f7f7" d="M 17.5,3.5 C 29.1704,3.72828 40.837,4.06162 52.5,4.5C 52.5,15.8333 52.5,27.1667 52.5,38.5C 49.1667,38.5 45.8333,38.5 42.5,38.5C 42.6662,32.4908 42.4995,26.4908 42,20.5C 35.4679,26.6975 29.3013,33.1975 23.5,40C 20.3578,39.9122 17.8578,38.4122 16,35.5C 15.3333,34.8333 15.3333,34.1667 16,33.5C 22.5,27 29,20.5 35.5,14C 29.5092,13.5005 23.5092,13.3338 17.5,13.5C 17.5,10.1667 17.5,6.83333 17.5,3.5 Z"/></g>
</svg>
