<?xml version="1.0" encoding="UTF-8"?>
<!DOCTYPE svg PUBLIC "-//W3C//DTD SVG 1.1//EN" "http://www.w3.org/Graphics/SVG/1.1/DTD/svg11.dtd">
<svg xmlns="http://www.w3.org/2000/svg" version="1.1" width="2000px" height="464px" style="shape-rendering:geometricPrecision; text-rendering:geometricPrecision; image-rendering:optimizeQuality; fill-rule:evenodd; clip-rule:evenodd" xmlns:xlink="http://www.w3.org/1999/xlink">
<g><path style="opacity:0.971" fill="#fefffe" d="M 1543.5,94.5 C 1560.17,94.5 1576.83,94.5 1593.5,94.5C 1593.5,185.833 1593.5,277.167 1593.5,368.5C 1576.83,368.5 1560.17,368.5 1543.5,368.5C 1543.67,362.824 1543.5,357.157 1543,351.5C 1530.52,365.834 1514.69,372.501 1495.5,371.5C 1458.31,371.838 1432.14,355.171 1417,321.5C 1407.74,293.334 1406.08,264.667 1412,235.5C 1416.19,219.785 1423.52,205.785 1434,193.5C 1460.52,170.195 1490.69,164.029 1524.5,175C 1531.46,178.4 1537.63,182.9 1543,188.5C 1543.5,157.168 1543.67,125.835 1543.5,94.5 Z M 1500.5,212.5 C 1522.39,212.564 1536.89,222.897 1544,243.5C 1546.15,252.544 1547.65,261.711 1548.5,271C 1548.19,286.417 1544.02,300.584 1536,313.5C 1521.95,329.219 1505.12,333.052 1485.5,325C 1471.67,315.854 1463.5,303.02 1461,286.5C 1457.42,266.038 1460.92,247.038 1471.5,229.5C 1479.01,219.919 1488.68,214.253 1500.5,212.5 Z"/></g>
<g><path style="opacity:0.972" fill="#fefffe" d="M 201.5,169.5 C 220.852,168.005 239.519,170.838 257.5,178C 281.566,192.084 293.733,213.251 294,241.5C 294.5,283.832 294.667,326.165 294.5,368.5C 281.15,368.833 267.817,368.499 254.5,367.5C 252.828,359.81 250.994,352.143 249,344.5C 236.248,360.796 219.414,369.629 198.5,371C 156.284,373.592 133.617,353.925 130.5,312C 131.481,285.362 144.148,266.695 168.5,256C 175.826,252.585 183.492,250.251 191.5,249C 209.463,247.6 227.463,247.1 245.5,247.5C 247.402,223.504 236.235,211.504 212,211.5C 195.303,211.237 184.47,218.904 179.5,234.5C 165.543,231.228 151.543,228.062 137.5,225C 146.517,192.494 167.85,173.994 201.5,169.5 Z M 205.5,287.5 C 218.833,287.5 232.167,287.5 245.5,287.5C 244.76,307.122 235.093,320.289 216.5,327C 208.126,330.141 199.793,330.141 191.5,327C 183.054,320.403 180.554,311.903 184,301.5C 188.845,293.167 196.012,288.5 205.5,287.5 Z"/></g>
<g><path style="opacity:0.971" fill="#fefffe" d="M 1130.5,169.5 C 1151.76,167.822 1172.1,171.322 1191.5,180C 1213.54,195.727 1224.37,217.227 1224,244.5C 1224.5,285.832 1224.67,327.165 1224.5,368.5C 1210.83,368.5 1197.17,368.5 1183.5,368.5C 1182.48,360.694 1180.81,353.027 1178.5,345.5C 1154.4,370.692 1125.74,377.525 1092.5,366C 1073.72,356.608 1063.22,341.441 1061,320.5C 1058.84,285.348 1074.68,262.514 1108.5,252C 1115.42,250.02 1122.42,248.52 1129.5,247.5C 1144.32,247.539 1159.32,247.539 1174.5,247.5C 1177.95,229.886 1171.29,218.386 1154.5,213C 1139.88,209.021 1126.88,211.855 1115.5,221.5C 1112.56,225.735 1109.89,230.068 1107.5,234.5C 1094.14,231.258 1080.8,227.925 1067.5,224.5C 1072.59,201.577 1085.92,185.41 1107.5,176C 1115.12,173.252 1122.79,171.085 1130.5,169.5 Z M 1137.5,287.5 C 1149.83,287.5 1162.17,287.5 1174.5,287.5C 1174.42,307.096 1165.09,320.263 1146.5,327C 1138.13,330.141 1129.79,330.141 1121.5,327C 1112.86,321.051 1110.03,312.884 1113,302.5C 1118.48,293.014 1126.65,288.014 1137.5,287.5 Z"/></g>
<g><path style="opacity:0.977" fill="#fefffe" d="M 1363.5,169.5 C 1369.84,169.334 1376.18,169.5 1382.5,170C 1387.51,170.583 1392.18,172.083 1396.5,174.5C 1393.64,189.605 1390.31,204.605 1386.5,219.5C 1366.88,209.709 1349.38,212.709 1334,228.5C 1324.49,241.55 1318.82,256.216 1317,272.5C 1315.63,304.482 1315.13,336.482 1315.5,368.5C 1299.17,368.5 1282.83,368.5 1266.5,368.5C 1266.5,303.167 1266.5,237.833 1266.5,172.5C 1282.83,172.5 1299.17,172.5 1315.5,172.5C 1315.33,182.506 1315.5,192.506 1316,202.5C 1326.77,184.238 1342.6,173.238 1363.5,169.5 Z"/></g>
<g><path style="opacity:0.968" fill="#fefffe" d="M 1690.5,169.5 C 1718.46,165.65 1741.96,173.983 1761,194.5C 1762.7,196.699 1764.2,199.032 1765.5,201.5C 1756.13,210.867 1746.47,219.867 1736.5,228.5C 1728.32,218.316 1717.65,212.649 1704.5,211.5C 1688.74,213.053 1683.74,221.053 1689.5,235.5C 1692.41,238.577 1695.74,241.077 1699.5,243C 1719.11,248.532 1737.78,256.199 1755.5,266C 1772.46,279.947 1778.62,297.781 1774,319.5C 1766.13,348.386 1747.3,365.219 1717.5,370C 1675.7,372.832 1645.7,355.499 1627.5,318C 1640.11,310.446 1652.94,303.279 1666,296.5C 1669.49,304.073 1673.99,311.073 1679.5,317.5C 1692.43,329.375 1706.76,331.542 1722.5,324C 1730.33,315.747 1731,307.08 1724.5,298C 1720.8,295.148 1716.8,292.815 1712.5,291C 1694.54,285.794 1677.54,278.461 1661.5,269C 1644.51,254.239 1638.34,235.739 1643,213.5C 1650.22,189.625 1666.05,174.958 1690.5,169.5 Z"/></g>
<g><path style="opacity:0.972" fill="#fefffe" d="M 558.5,172.5 C 568.855,172.168 579.188,172.501 589.5,173.5C 568.674,238.48 548.007,303.48 527.5,368.5C 512.818,368.833 498.152,368.499 483.5,367.5C 473.18,326.705 462.347,286.039 451,245.5C 439.447,286.323 428.614,327.323 418.5,368.5C 403.818,368.833 389.152,368.499 374.5,367.5C 353.434,303.301 332.767,238.968 312.5,174.5C 329.153,173.501 345.82,173.167 362.5,173.5C 373.471,216.511 384.638,259.511 396,302.5C 407.143,259.572 417.977,216.572 428.5,173.5C 443.833,173.5 459.167,173.5 474.5,173.5C 484.893,216.862 495.393,260.195 506,303.5C 517.904,260.299 529.071,216.966 539.5,173.5C 546.022,173.823 552.355,173.49 558.5,172.5 Z"/></g>
<g><path style="opacity:0.972" fill="#fefffe" d="M 658.5,172.5 C 673.833,172.5 689.167,172.5 704.5,172.5C 714.741,215.953 725.408,259.286 736.5,302.5C 747.933,259.215 758.933,215.882 769.5,172.5C 786.167,172.5 802.833,172.5 819.5,172.5C 799.611,237.717 778.944,302.717 757.5,367.5C 742.848,368.499 728.182,368.833 713.5,368.5C 703.731,327.897 692.898,287.564 681,247.5C 670.06,287.475 659.227,327.475 648.5,367.5C 633.833,368.833 619.167,368.833 604.5,367.5C 597.231,342.661 589.398,317.994 581,293.5C 580.333,290.167 580.333,286.833 581,283.5C 587.224,265.708 592.89,247.708 598,229.5C 598.414,229.043 598.914,228.709 599.5,228.5C 608.345,253.713 617.345,278.713 626.5,303.5C 637.167,259.834 647.833,216.167 658.5,172.5 Z"/></g>
<g><path style="opacity:0.972" fill="#fefffe" d="M 888.5,172.5 C 903.833,172.5 919.167,172.5 934.5,172.5C 944.953,215.888 955.62,259.221 966.5,302.5C 978.419,259.326 989.753,215.992 1000.5,172.5C 1016.83,172.5 1033.17,172.5 1049.5,172.5C 1029.92,237.807 1009.25,302.807 987.5,367.5C 972.848,368.499 958.182,368.833 943.5,368.5C 937.002,342.857 930.502,317.191 924,291.5C 919.854,276.733 915.521,262.066 911,247.5C 900.082,287.421 889.415,327.421 879,367.5C 864.245,368.491 849.412,368.824 834.5,368.5C 826.696,341.756 818.696,315.089 810.5,288.5C 816.033,268.234 822.367,248.234 829.5,228.5C 838.83,253.52 847.997,278.52 857,303.5C 867.286,259.787 877.786,216.12 888.5,172.5 Z"/></g>
<g><path style="opacity:0.968" fill="#fefffe" d="M 1829.5,304.5 C 1846.5,302.248 1859,308.581 1867,323.5C 1869,332.833 1869,342.167 1867,351.5C 1857.01,369.393 1842.17,374.893 1822.5,368C 1806.63,359.105 1800.79,345.605 1805,327.5C 1809.15,315.519 1817.31,307.852 1829.5,304.5 Z"/></g>
</svg>
