<svg width="213" height="111" viewBox="0 0 213 111" fill="none" xmlns="http://www.w3.org/2000/svg">
<g id="Group">
<g id="Group_2">
<g id="Group_3">
<path id="Vector" d="M173.936 73.3819L197.985 77.4179C197.985 77.4179 207.681 37.964 211.63 17.9257C212.371 13.0054 189.176 7.52796 188.013 12.2122C183.294 35.336 173.936 73.3819 173.936 73.3819Z" fill="#070707"/>
</g>
</g>
<g id="Group_4">
<g id="Group_5">
<path id="Vector_2" d="M176.443 81.6379C174.593 82.4121 172.98 83.4884 171.605 84.8635C170.228 86.2406 169.153 87.8534 168.379 89.702C167.605 91.5525 167.218 93.5082 167.218 95.5726C167.218 97.637 167.605 99.5947 168.379 101.443C169.153 103.294 170.228 104.885 171.605 106.217C172.98 107.552 174.593 108.624 176.443 109.443C178.292 110.259 180.249 110.669 182.314 110.669C184.378 110.669 186.334 110.259 188.184 109.443C190.033 108.624 191.646 107.552 193.023 106.217C194.398 104.885 195.474 103.294 196.248 101.443C197.023 99.5947 197.41 97.637 197.41 95.5726C197.41 93.5082 197.023 91.5525 196.248 89.702C195.474 87.8534 194.398 86.2406 193.023 84.8635C191.646 83.4884 190.033 82.4121 188.184 81.6379C186.334 80.8638 184.378 80.4767 182.314 80.4767C180.249 80.4767 178.292 80.8638 176.443 81.6379Z" fill="#070707"/>
</g>
</g>
<g id="Group_6">
<g id="Group_7">
<path id="Vector_3" d="M146.626 80.1958C144.775 80.9699 143.162 82.0463 141.787 83.4214C140.41 84.7985 139.336 86.4113 138.562 88.2598C137.787 90.1103 137.4 92.0661 137.4 94.1305C137.4 96.1949 137.787 98.1526 138.562 100.001C139.336 101.852 140.41 103.443 141.787 104.775C143.162 106.109 144.775 107.182 146.626 108.001C148.474 108.817 150.432 109.226 152.496 109.226C154.561 109.226 156.516 108.817 158.367 108.001C160.215 107.182 161.828 106.109 163.205 104.775C164.58 103.443 165.657 101.852 166.431 100.001C167.205 98.1526 167.592 96.1949 167.592 94.1305C167.592 92.0661 167.205 90.1103 166.431 88.2598C165.657 86.4113 164.58 84.7985 163.205 83.4214C161.828 82.0463 160.215 80.9699 158.367 80.1958C156.516 79.4216 154.561 79.0345 152.496 79.0345C150.432 79.0345 148.474 79.4216 146.626 80.1958Z" fill="#070707"/>
</g>
</g>
<g id="Group_8">
<g id="Group_9">
<path id="Vector_4" d="M83.3589 108.366H107.745V41.9409H83.3589V108.366Z" fill="#070707"/>
</g>
</g>
<g id="Group_10">
<g id="Group_11">
<path id="Vector_5" d="M89.6164 2.69843C87.7659 3.47257 86.1531 4.54894 84.778 5.92405C83.4009 7.30114 82.3265 8.91396 81.5523 10.7625C80.7782 12.613 80.3911 14.5687 80.3911 16.6331C80.3911 18.6975 80.7782 20.6552 81.5523 22.5038C82.3265 24.3543 83.4009 25.9453 84.778 27.2777C86.1531 28.6121 87.7659 29.685 89.6164 30.5033C91.4649 31.3196 93.4226 31.729 95.487 31.729C97.5514 31.729 99.5072 31.3196 101.358 30.5033C103.206 29.685 104.819 28.6121 106.196 27.2777C107.571 25.9453 108.648 24.3543 109.422 22.5038C110.196 20.6552 110.583 18.6975 110.583 16.6331C110.583 14.5687 110.196 12.613 109.422 10.7625C108.648 8.91396 107.571 7.30114 106.196 5.92405C104.819 4.54894 103.206 3.47257 101.358 2.69843C99.5072 1.92428 97.5514 1.5372 95.487 1.5372C93.4226 1.5372 91.4649 1.92428 89.6164 2.69843Z" fill="#070707"/>
</g>
</g>
<g id="Group_12">
<g id="Group_13">
<path id="Vector_6" d="M23.1695 78.9915C23.1695 78.9915 24.0454 70.4312 24.4325 68.538C24.8195 66.6467 25.5068 64.9476 26.4969 63.4415C27.4849 61.9373 28.7548 60.7319 30.3031 59.8288C31.8514 58.9256 33.7868 58.474 36.1092 58.474C38.4317 58.474 40.3025 58.9256 41.7218 59.8288C43.1411 60.7319 44.2155 61.9373 44.9474 63.4415C45.6774 64.9476 46.1508 66.6467 46.3667 68.538C46.5806 70.4312 46.6893 72.3238 46.6893 74.2151V108.149H70.1718V67.6348C70.1718 63.4211 69.6557 59.6149 68.6235 56.2161C67.5913 52.8192 66.043 49.8938 63.9786 47.4424C61.9142 44.9909 59.3337 43.0997 56.2371 41.7653C53.1405 40.4328 49.4837 39.7654 45.27 39.7654C40.6251 39.7654 36.6253 40.6264 33.2707 42.3459C29.916 44.0674 26.8616 46.7327 24.1099 50.3454L7.41357 74.7857L23.1695 78.9915Z" fill="#070707"/>
</g>
</g>
<g id="Group_14">
<g id="Group_15">
<path id="Vector_7" d="M3.60029 0.796238C0.859666 12.2212 0.370117 108.149 0.370117 108.149H23.8527C23.8527 108.149 22.3108 20.835 27.8455 3.08428C28.2726 1.71414 3.91398 -0.511627 3.60029 0.796238Z" fill="#070707"/>
</g>
</g>
</g>
</svg>
