<svg width="45" height="45" viewBox="0 0 45 45" fill="none" xmlns="http://www.w3.org/2000/svg">
<g id="paperclip-vertical_9795397 1" clip-path="url(#clip0_450_538)">
<path id="Vector" d="M12.5306 34.9879C8.62977 32.2368 7.69201 26.8113 10.4431 22.9105L20.433 8.74553C22.3388 6.0433 26.0921 5.39457 28.7944 7.30035C31.4966 9.20613 32.1453 12.9594 30.2395 15.6617L20.2496 29.8266C19.1891 31.3302 17.1081 31.6899 15.6044 30.6295C14.1007 29.569 13.7411 27.488 14.8015 25.9843L24.023 12.909C24.2382 12.6039 24.647 12.5332 24.9521 12.7484C25.2572 12.9636 25.3278 13.3723 25.1126 13.6774L15.8911 26.7527C15.2533 27.6571 15.4685 28.902 16.3729 29.5399C17.2772 30.1777 18.5221 29.9625 19.16 29.0581L29.1499 14.8932C30.6331 12.7903 30.1288 9.87308 28.0259 8.38996C25.923 6.90683 23.0058 7.41104 21.5227 9.51399L11.5327 23.6789C9.20427 26.9804 9.99751 31.5699 13.299 33.8983C16.6005 36.2267 21.19 35.4335 23.5184 32.132L34.2768 16.8774C34.492 16.5723 34.9008 16.5017 35.2059 16.7168C35.511 16.932 35.5816 17.3408 35.3664 17.6459L24.608 32.9004C21.8569 36.8012 16.4314 37.739 12.5306 34.9879Z" fill="black"/>
</g>
<defs>
<clipPath id="clip0_450_538">
<rect width="32" height="32" fill="white" transform="translate(18.4429) rotate(35.1938)"/>
</clipPath>
</defs>
</svg>
