<svg viewBox="0 0 1785 448" xml:space="preserve" xmlns="http://www.w3.org/2000/svg" fill-rule="evenodd" clip-rule="evenodd" stroke-linejoin="round" stroke-miterlimit="2"><path d="M827.834 154.864h180.076v33.524h-70.9v188.981h-38.865V188.388h-70.608l.297-33.524Zm172.366 61.411h33.23v31.151h.59c1.19-4.45 3.27-8.604 6.23-12.757 2.97-4.154 6.53-8.01 10.98-11.274 4.15-3.56 8.9-6.23 14.24-8.307 5.04-2.076 10.38-3.263 15.72-3.263 4.16 0 7.12.297 8.61.297 1.48.296 3.26.593 4.74.593v34.117c-2.37-.593-5.04-.89-7.71-1.186-2.67-.297-5.04-.594-7.71-.594-5.94 0-11.57 1.187-16.91 3.56-5.34 2.374-9.8 5.934-13.95 10.384-3.86 4.747-7.12 10.383-9.49 17.207-2.38 6.823-3.56 14.834-3.56 23.734v76.542h-35.602l.592-160.204Zm257.81 161.094h-35.3v-22.548h-.6c-4.45 8.307-10.97 14.537-19.58 19.581-8.6 5.043-17.5 7.417-26.4 7.417-21.07 0-36.49-5.044-45.99-15.724-9.49-10.384-14.24-26.404-14.24-47.468V216.275h35.6v98.792c0 14.241 2.67 24.327 8.31 29.964 5.34 5.934 13.06 8.9 22.84 8.9 7.42 0 13.65-1.186 18.7-3.56 5.04-2.373 9.19-5.34 12.16-9.197 3.26-3.856 5.34-8.603 6.82-13.943 1.49-5.34 2.08-11.274 2.08-17.504v-93.452h35.6v161.094Zm60.23-51.622c1.18 10.384 5.04 17.504 11.86 21.954 6.82 4.154 15.13 6.23 24.63 6.23 3.26 0 7.12-.296 11.27-.89 4.15-.593 8.31-1.483 11.87-2.966 3.85-1.484 6.82-3.56 9.19-6.527 2.38-2.967 3.56-6.527 3.27-10.977-.3-4.45-1.78-8.307-5.05-11.274-3.26-2.966-7.12-5.043-11.86-7.12-4.75-1.78-10.39-3.263-16.62-4.45-6.23-1.187-12.46-2.67-18.98-4.153-6.53-1.484-13.06-3.264-19.29-5.34-6.23-2.077-11.57-4.747-16.61-8.604-4.75-3.56-8.9-8.01-11.57-13.647-2.97-5.637-4.45-12.164-4.45-20.47 0-8.901 2.07-16.021 6.52-21.954 4.16-5.934 9.79-10.681 16.32-14.241 6.53-3.56 13.94-6.23 21.95-7.713a125.793 125.793 0 0 1 22.85-2.077c8.31 0 16.32.89 23.73 2.67 7.42 1.78 14.54 4.45 20.47 8.604 6.23 3.857 11.28 9.197 15.13 15.427 4.16 6.23 6.53 13.943 7.72 22.844h-37.09c-1.78-8.604-5.63-14.241-11.57-17.207-6.23-2.967-13.05-4.451-21.06-4.451-2.37 0-5.64.297-8.9.594-3.56.593-6.53 1.187-9.79 2.373-2.97 1.187-5.64 2.967-7.72 5.044-2.07 2.076-3.26 5.043-3.26 8.603 0 4.45 1.48 7.714 4.45 10.384s6.83 4.747 11.87 6.823c4.75 1.78 10.38 3.264 16.61 4.45 6.23 1.187 12.76 2.67 19.29 4.154 6.52 1.483 12.75 3.263 18.98 5.34s11.87 4.747 16.62 8.603c4.74 3.561 8.9 8.011 11.86 13.351 2.97 5.34 4.45 12.163 4.45 19.877 0 9.493-2.07 17.504-6.52 24.327-4.45 6.527-10.09 12.164-16.91 16.317-6.83 4.154-14.84 7.12-23.14 9.197-8.61 1.78-16.91 2.967-25.22 2.967-10.09 0-19.58-1.187-28.18-3.56-8.61-2.374-16.32-5.934-22.55-10.384-6.23-4.747-11.28-10.383-14.84-17.504-3.56-6.823-5.63-15.13-5.93-24.92h35.9v.296h.3Zm117.18-109.472h27v-48.654h35.6v48.357h32.04v26.404h-32.04v86.036c0 3.856.3 6.823.59 9.79.3 2.67 1.19 5.043 2.08 6.823 1.19 1.78 2.97 3.264 5.04 4.154 2.38.89 5.34 1.483 9.5 1.483 2.37 0 5.04 0 7.41-.297 2.38-.296 5.05-.593 7.42-1.186v27.59c-3.86.594-7.71.89-11.57 1.187-3.86.593-7.42.593-11.57.593-9.49 0-16.91-.89-22.55-2.67-5.63-1.78-10.08-4.45-13.35-7.713-3.26-3.56-5.34-7.714-6.52-12.757-1.19-5.044-1.79-11.274-2.08-17.801v-94.935h-27v-26.997.593Zm119.56 0h33.52v21.954h.6c5.04-9.494 11.87-16.021 20.77-20.174 8.9-4.153 18.39-6.23 29.07-6.23 12.76 0 23.73 2.077 33.23 6.823 9.49 4.45 17.2 10.384 23.43 18.394 6.23 7.714 10.98 16.91 13.95 27.294 2.96 10.384 4.74 21.657 4.74 33.227 0 10.977-1.48 21.361-4.15 31.448-2.97 10.087-7.12 19.284-12.76 26.997-5.63 7.714-12.75 13.944-21.65 18.691-8.9 4.746-18.99 7.12-30.86 7.12-5.04 0-10.38-.594-15.43-1.484-5.04-.89-10.08-2.373-14.83-4.45-4.74-2.076-9.2-4.747-13.05-8.01-4.16-3.263-7.42-7.12-10.09-11.274h-.59V437h-35.6V216.275h-.3Zm124.31 80.695c0-7.12-.89-14.24-2.97-21.064-1.78-6.823-4.75-12.757-8.6-18.097-3.86-5.34-8.61-9.493-13.95-12.757-5.63-3.263-12.16-4.747-19.28-4.747-14.84 0-26.11 5.044-33.82 15.428-7.42 10.383-11.28 24.327-11.28 41.534 0 8.307.89 15.723 2.97 22.547 2.08 6.823 4.75 12.757 8.9 17.8 3.86 5.044 8.61 8.901 14.24 11.867 5.64 2.967 11.87 4.45 19.29 4.45 8.3 0 14.83-1.78 20.47-5.043 5.63-3.263 10.08-7.714 13.94-12.757 3.56-5.34 6.23-11.274 7.71-18.097 1.49-7.12 2.38-13.944 2.38-21.064Zm62.59-142.106h35.61v33.524h-35.61v-33.524Zm0 61.411h35.61v161.094h-35.61V216.275Zm67.35-61.411h35.6v222.505h-35.6V154.864Zm144.18 226.955c-12.75 0-24.32-2.077-34.41-6.527-10.09-4.45-18.39-10.087-25.51-17.504-6.83-7.417-12.17-16.614-15.73-26.997-3.56-10.384-5.64-21.954-5.64-34.118 0-12.163 1.78-23.437 5.64-33.82 3.56-10.384 8.9-19.284 15.73-26.998 6.82-7.416 15.42-13.35 25.51-17.503 10.09-4.154 21.66-6.527 34.41-6.527 12.76 0 24.33 2.077 34.42 6.527 10.08 4.153 18.39 10.087 25.51 17.503 6.82 7.417 12.16 16.614 15.72 26.998a103.653 103.653 0 0 1 5.64 33.82c0 12.461-1.78 23.734-5.64 34.118-3.85 10.383-8.9 19.284-15.72 26.997-6.82 7.417-15.43 13.35-25.51 17.504-10.09 4.153-21.36 6.527-34.42 6.527Zm0-28.184c7.72 0 14.84-1.78 20.47-5.044 5.94-3.263 10.39-7.713 14.24-13.053 3.86-5.34 6.53-11.571 8.31-18.097a81.38 81.38 0 0 0 2.67-20.768c0-6.823-.89-13.647-2.67-20.47-1.78-6.824-4.45-12.757-8.31-18.097-3.85-5.34-8.6-9.494-14.24-12.757-5.93-3.263-12.75-5.044-20.47-5.044-7.71 0-14.83 1.781-20.47 5.044-5.93 3.263-10.38 7.713-14.24 12.757-3.85 5.34-6.53 11.273-8.31 18.097-1.77 6.823-2.66 13.647-2.66 20.47 0 7.121.89 13.944 2.66 20.768 1.78 6.823 4.46 12.757 8.31 18.097 3.86 5.34 8.61 9.79 14.24 13.053 5.94 3.56 12.76 5.044 20.47 5.044Zm91.97-137.36h27v-48.654h35.6v48.357h32.04v26.404h-32.04v86.036c0 3.856.3 6.823.59 9.79.3 2.67 1.19 5.043 2.08 6.823 1.19 1.78 2.97 3.264 5.04 4.154 2.38.89 5.34 1.483 9.5 1.483 2.37 0 5.04 0 7.41-.297 2.38-.296 5.05-.593 7.42-1.186v27.59c-3.86.594-7.71.89-11.57 1.187-3.86.593-7.42.593-11.57.593-9.49 0-16.91-.89-22.55-2.67-5.63-1.78-10.08-4.45-13.35-7.713-3.26-3.56-5.34-7.714-6.52-12.757-1.19-5.044-1.78-11.274-2.08-17.801v-94.935h-27v-26.997.593Z" transform="translate(-358.676 7.928)" fill-rule="nonzero" fill="#ffffff" class="fill-000000"></path><path d="M346.386-19.043h438.476v438.476H346.386z" transform="matrix(4.07045 0 0 1.02065 -1409.95 19.436)" fill="none"></path><path d="M786.299 154.864H623.426L573.288 0l-50.435 154.864-162.873-.297 131.723 95.825-50.435 154.864 131.723-95.826 131.723 95.826-50.138-154.864 131.723-95.528Z" transform="matrix(1 0 0 1 -358.679 7.928)" fill="#ffffff" fill-rule="nonzero" class="fill-00b67a"></path><path d="m665.85 285.4-11.274-35.008-81.288 59.038 92.562-24.03Z" transform="matrix(1 0 0 1 -358.679 7.928)" fill="#000000" fill-rule="nonzero" class="fill-005128"></path></svg>