<svg width="620" height="483" viewBox="0 0 620 483" fill="none" xmlns="http://www.w3.org/2000/svg">
<g clip-path="url(#clip0_773_1179)">
<path opacity="0.1" d="M558.81 97.8401H196.009V475.012H558.81V97.8401Z" fill="#7BD53D"/>
<path d="M22.9774 480.699V446.91H37.5164L28.793 480.699H22.9774Z" fill="#292678"/>
<path d="M78.9573 480.699V446.91H63.6904L72.849 480.699H78.9573Z" fill="#292678"/>
<path d="M20.4257 312.746C21.2604 252.542 15.1719 210.414 15.1719 210.414L43.6168 199.041H66.3608L96.7008 214.206L93.0294 312.762L20.4257 312.746Z" fill="#7BD53D"/>
<path d="M55.9403 230.299C55.5803 232.553 55.0502 235.104 54.3776 237.844C53.7921 240.248 53.0958 242.803 52.3085 245.452C44.5544 271.424 27.622 306.237 15.1719 293.793C-9.05497e-06 278.632 0 243.574 0 230.299C0 217.025 15.1719 210.414 15.1719 210.414C18.0164 223.68 19.5791 262.527 19.5791 262.527L37.5085 231.264L40.7723 225.578L55.9403 230.299Z" fill="#7BD53D"/>
<path d="M54.4014 233.348L53.7565 239.81C53.7565 239.81 39.091 297.217 19.2191 296.249C19.2191 296.249 9.64909 292.737 4.5575 274.931" stroke="#228652" stroke-width="4" stroke-miterlimit="10"/>
<path d="M55.9404 230.3C55.5803 232.554 55.0502 235.104 54.3777 237.844L37.5085 231.249L40.7724 225.562L55.9404 230.3Z" fill="#228652"/>
<path d="M87.2296 292.848H39.8228V274.84L46.4612 274.235L94.6356 269.866L96.7126 214.19C96.7126 214.19 110.935 225.562 115.675 255.888C120.414 286.213 106.192 292.848 87.2296 292.848Z" fill="#7BD53D"/>
<path d="M46.4612 274.235V292.848H39.8228V274.84L46.4612 274.235Z" fill="#228652"/>
<path d="M39.8229 278.632C39.8229 278.632 22.756 277.683 21.8104 292.868H39.8229V278.632Z" fill="#F9A28B"/>
<path d="M178.249 458.689L153.682 463.434L123.259 357.294C123.259 357.294 84.5198 360.138 52.8387 364.875C21.1576 369.612 21.8183 327.914 21.8183 327.914V312.75H72.3822C72.3822 312.75 122.143 310.943 145.362 315.992C151.26 317.273 155.446 318.994 156.673 321.295C157.598 323.031 158.746 327.436 160.023 333.66C167.113 368.188 178.249 458.689 178.249 458.689Z" fill="#292678"/>
<path d="M122.309 344.02L99.5532 433.101L119.465 443.525L150.754 387.612L122.309 344.02Z" fill="#292678"/>
<path d="M375.18 452.809L376.719 466.076H360.578L359.043 453.754L375.18 452.809Z" fill="#F9A28B"/>
<path d="M322.064 453.754V466.076H306.896L305.947 453.754H322.064Z" fill="#F9A28B"/>
<path d="M282.241 212.098L303.102 458.495H324.909V251.902V212.098H282.241Z" fill="#292678"/>
<path d="M299.308 212.098L317.325 242.423L357.144 458.495H382.744L352.404 212.098H299.308Z" fill="#292678"/>
<path d="M351.894 204.518C351.067 144.311 358.097 102.17 358.097 102.17L329.652 90.7976H306.896L276.556 105.958L282.123 204.518H351.894Z" fill="#7BD53D"/>
<path d="M353.354 204.518H280.346V213.047H353.354V204.518Z" fill="#7BD53D"/>
<path d="M193.857 156.446L190.13 155.632C190.13 155.632 184.987 150.171 182.218 147.968C179.448 145.766 179.345 149.301 183.116 153.658C183.116 153.658 173.039 146.992 169.665 152.911C165.962 159.44 171.793 165.007 184.896 165.039L188.82 166.34L193.857 156.446Z" fill="#F9A28B"/>
<path d="M287.934 171.35C287.934 171.35 257.594 207.361 248.112 205.467C242.794 204.403 210.29 182.532 195.593 172.504C191.186 169.503 188.377 167.558 188.377 167.558L195.016 153.322L203.169 156.185L205.579 157.039L246.216 171.33C246.216 171.33 264.229 111.621 276.556 105.938L287.934 171.35Z" fill="#7BD53D"/>
<path d="M203.169 156.205L195.593 172.504C191.186 169.503 188.377 167.558 188.377 167.558L195.016 153.322L203.169 156.205Z" fill="#228652"/>
<path d="M439.005 151.705L442.728 150.914C442.728 150.914 447.871 145.453 450.64 143.251C453.409 141.048 453.512 144.583 449.742 148.937C449.742 148.937 459.818 142.274 463.193 148.194C466.9 154.722 461.068 160.29 447.966 160.317L444.041 161.622L439.005 151.705Z" fill="#F9A28B"/>
<path d="M344.927 166.612C344.927 166.612 375.267 202.624 384.75 200.726C390.067 199.666 422.571 177.791 437.264 167.767C441.675 164.762 444.48 162.82 444.48 162.82L437.846 148.605L429.688 151.468L427.283 152.318L386.645 166.612C386.645 166.612 368.628 106.903 356.305 101.221L344.927 166.612Z" fill="#7BD53D"/>
<path d="M429.688 151.468L437.264 167.767C441.675 164.762 444.48 162.82 444.48 162.82L437.846 148.605L429.688 151.468Z" fill="#228652"/>
<path d="M320.897 61.6389L325.597 90.5682L314.219 99.1213L307.541 93.0831L307.047 67.9301L320.897 61.6389Z" fill="#F9A28B"/>
<path d="M327.575 48.8114C327.575 48.8114 330.546 86.7959 300.123 83.2727C269.7 79.7494 293.196 34.7263 293.196 34.7263L323.117 40.0092L327.575 48.8114Z" fill="#F9A28B"/>
<path d="M323.619 54.6162C323.619 54.6162 331.531 44.0544 338.708 49.5864C345.884 55.1184 340.686 70.967 331.041 69.2074C321.396 67.4478 319.172 64.4267 319.172 64.4267L323.619 54.6162Z" fill="#F9A28B"/>
<path d="M321.641 64.1578L317.685 46.5495C317.685 46.5495 283.551 48.8114 274.895 40.2583C266.239 31.7053 263.268 18.3755 268.462 16.8689C273.656 15.3624 288.243 29.4434 288.243 29.4434C288.243 29.4434 286.51 9.07114 293.188 13.8479C299.866 18.6246 300.369 26.9365 300.369 26.9365C300.369 26.9365 326.341 28.1939 328.062 33.2237C329.783 38.2535 328.311 39.5149 328.311 39.5149C328.311 39.5149 333.506 37.5022 334.245 40.0171C334.985 42.532 321.641 64.1578 321.641 64.1578Z" fill="#2F011C"/>
<path d="M307.213 82.7704L319.936 75.198L307.818 91.8533L307.213 82.7704Z" fill="#F9A28B"/>
<path d="M284.485 67.0048C284.485 67.0048 292.171 58.0049 305.211 62.9714C318.251 67.938 320.426 55.834 320.426 55.834L322.765 64.6757C322.765 64.6757 324.774 71.3505 321.427 77.4005C318.08 83.4505 303.375 90.4495 303.375 90.4495C303.375 90.4495 280.469 87.638 284.485 67.0048Z" fill="#2F011C"/>
<path d="M102.948 434.92L100.285 442.184L112.399 447.997L115.671 441.457L102.948 434.92Z" fill="#F9A28B"/>
<path d="M94.79 454.419L100.285 442.184L112.399 447.997L127.911 472.343L94.79 454.419Z" fill="#292678"/>
<path d="M110.583 454.782L119.065 451.995" stroke="#7BD53D" stroke-width="4" stroke-miterlimit="10"/>
<path d="M115.311 458.294L121.771 456.194" stroke="#7BD53D" stroke-width="4" stroke-miterlimit="10"/>
<path d="M157.721 462.41L160.142 470.165L173.47 467.254L172.26 459.504L157.721 462.41Z" fill="#F9A28B"/>
<path d="M160.142 470.164L163.453 483L196.899 474.119L173.47 467.254L160.142 470.164Z" fill="#292678"/>
<path d="M177.996 465.882L177.347 472.343" stroke="#7BD53D" stroke-width="4" stroke-miterlimit="10"/>
<path d="M182.68 467.499L182.356 472.826" stroke="#7BD53D" stroke-width="4" stroke-miterlimit="10"/>
<path d="M322.072 463.166L323.378 478.215L286.562 479.73L307.628 464.459L322.072 463.166Z" fill="#292678"/>
<path d="M302.584 464.478L305.567 471.276" stroke="#7BD53D" stroke-width="4" stroke-miterlimit="10"/>
<path d="M298.462 467.796L300.709 473.474" stroke="#7BD53D" stroke-width="4" stroke-miterlimit="10"/>
<path d="M361.167 462.323L359.078 479.884L396.278 479.449L375.73 462.964L361.167 462.323Z" fill="#292678"/>
<path d="M380.833 462.683L377.467 470.762" stroke="#7BD53D" stroke-width="4" stroke-miterlimit="10"/>
<path d="M384.841 466.293L382.273 473.023" stroke="#7BD53D" stroke-width="4" stroke-miterlimit="10"/>
<path d="M121.126 356.073L138.573 409.364L130.819 421.958L121.126 356.073Z" fill="#1A1A56"/>
<path d="M306.521 241.257L321.059 251.431L325.423 283.769L323.967 319.741L318.152 255.065L306.521 241.257Z" fill="#1A1A56"/>
<path d="M34.3158 361.885H65.4391C69.221 361.886 72.9658 362.631 76.4595 364.079C79.9532 365.526 83.1273 367.648 85.8005 370.322C88.4736 372.996 90.5934 376.17 92.0388 379.663C93.4842 383.156 94.2268 386.9 94.2242 390.68V437.937C94.2242 440.9 93.0467 443.741 90.9508 445.836C88.8548 447.931 86.0121 449.108 83.048 449.108H16.7029C15.2346 449.107 13.7809 448.816 12.425 448.253C11.0692 447.689 9.83764 446.864 8.80083 445.825C7.76402 444.786 6.94226 443.553 6.38251 442.196C5.82276 440.839 5.53599 439.385 5.53859 437.918V390.68C5.53599 386.901 6.27833 383.158 7.72322 379.665C9.1681 376.172 11.2872 372.998 13.9595 370.324C16.6318 367.651 19.805 365.529 23.2978 364.081C26.7906 362.633 30.5345 361.887 34.3158 361.885Z" fill="#7BD53D"/>
<path d="M277.439 131.53L280.71 179.128" stroke="#228652" stroke-width="4" stroke-miterlimit="10"/>
<path d="M354.865 114.816L352.321 174.402L351.593 203.106" stroke="#228652" stroke-width="4" stroke-miterlimit="10"/>
<path d="M386.645 166.608L379.587 179.128" stroke="#228652" stroke-width="4" stroke-miterlimit="10"/>
<path d="M387.583 175.857L387.464 166.529" stroke="#228652" stroke-width="4" stroke-miterlimit="10"/>
<path d="M246.213 171.35L245.69 184.094" stroke="#228652" stroke-width="4" stroke-miterlimit="10"/>
<path d="M252.479 176.585C251.751 176.344 246.418 172.235 246.418 172.235" stroke="#228652" stroke-width="4" stroke-miterlimit="10"/>
<path d="M279.982 211.465L280.346 204.518L341.054 204.198" stroke="#228652" stroke-width="4" stroke-miterlimit="10"/>
<path d="M301.916 93.2572L313.788 105.369L331.721 91.802" stroke="#228652" stroke-width="4" stroke-miterlimit="10"/>
<path d="M38.8101 230.521L12.0703 275.493" stroke="#228652" stroke-width="4" stroke-miterlimit="10"/>
<path d="M19.6622 246.587L23.381 256.599" stroke="#228652" stroke-width="4" stroke-miterlimit="10"/>
<path d="M46.4573 274.235L102.224 262.574" stroke="#228652" stroke-width="4" stroke-miterlimit="10"/>
<path d="M93.4963 247.433L93.1323 263.784" stroke="#228652" stroke-width="4" stroke-miterlimit="10"/>
<path d="M114.341 279.53C114.341 279.53 109.008 293.097 88.4087 292.488" stroke="#228652" stroke-width="4" stroke-miterlimit="10"/>
<path d="M44.0007 147.498C44.0007 147.498 39.1544 145.88 36.7292 151.373C34.3041 156.865 39.3166 169.78 39.3166 169.78L45.4526 163.16L44.6614 147.66L44.0007 147.498Z" fill="#2F011C"/>
<path d="M50.825 172.844L46.0063 201.77L57.6771 210.323L64.5292 204.285L65.0356 179.132L50.825 172.844Z" fill="#F9A28B"/>
<path d="M43.9768 160.017C43.9768 160.017 40.9305 197.997 72.1408 194.474C103.351 190.951 79.2619 145.928 79.2619 145.928L48.558 151.211L43.9768 160.017Z" fill="#F9A28B"/>
<path d="M48.0358 165.802C48.0358 165.802 39.9178 155.236 32.5593 160.768C25.2008 166.3 30.5298 182.149 40.4242 180.389C50.3186 178.629 52.6052 175.616 52.6052 175.616L48.0358 165.802Z" fill="#F9A28B"/>
<path d="M47.6364 172.769C47.6364 172.769 37.4571 151.211 40.6062 142.005C43.7554 132.8 59.0262 141.764 72.1132 134.741C72.1132 134.741 81.161 131.182 86.3317 137.648C91.5024 144.113 85.6829 155.41 77.7666 153.635C69.8503 151.859 57.5703 147.98 55.1491 152.179C52.7279 156.379 49.3494 157.185 49.3494 157.185L47.6364 172.769Z" fill="#2F011C"/>
<path d="M64.8615 193.972L51.8101 186.403L64.2404 203.055L64.8615 193.972Z" fill="#F9A28B"/>
<path d="M51.3906 186.573L64.719 194.446L64.4777 200.623L51.3906 186.573Z" fill="#2F011C"/>
<path d="M42.7109 226.863C42.7109 226.863 43.1659 221.327 43.8226 216.092C44.4794 210.856 47.7788 202.968 49.7331 202.311C51.6875 201.655 51.7112 205.593 51.7112 205.593C51.7112 205.593 58.9352 199.029 61.5621 199.029C64.189 199.029 55.6516 210.188 55.6516 210.188C55.6516 210.188 60.9054 213.47 59.6078 216.748C58.3101 220.026 51.6559 229.647 51.6559 229.647L42.7109 226.863Z" fill="#F9A28B"/>
<path d="M20.4217 312.746L20.0657 304.841L81.1372 305.205" stroke="#228652" stroke-width="4" stroke-miterlimit="10"/>
<path d="M97.1321 269.114L93.0137 264.512" stroke="#228652" stroke-width="4" stroke-miterlimit="10"/>
<path d="M345.05 212.917L376.315 458.535" stroke="#228652" stroke-width="4" stroke-miterlimit="10"/>
<path d="M34.3672 312.635C34.3672 312.635 30.2488 339.362 49.8754 340.813C64.9643 341.932 110.112 337.037 130.186 334.716C132.875 334.401 135.585 335.105 137.781 336.69C139.976 338.275 141.496 340.625 142.042 343.277L166.203 460.002" stroke="#228652" stroke-width="4" stroke-miterlimit="10"/>
<path d="M42.7703 170.369C42.6081 169.883 38.8893 164.39 33.5603 166.49" stroke="#2F011C" stroke-width="4" stroke-miterlimit="10"/>
<path d="M36.1436 169.883C36.1436 169.883 38.5687 167.459 39.2136 167.301" stroke="#2F011C" stroke-width="4" stroke-miterlimit="10"/>
<path d="M183.104 153.658L180.904 160.839" stroke="#2F011C" stroke-width="4" stroke-miterlimit="10"/>
<path d="M167.979 151.634L177.347 154.378" stroke="#2F011C" stroke-width="4" stroke-miterlimit="10"/>
<path d="M167.979 156.802L175.571 156.64" stroke="#2F011C" stroke-width="4" stroke-miterlimit="10"/>
<path d="M168.3 161.484L176.058 159.384" stroke="#2F011C" stroke-width="4" stroke-miterlimit="10"/>
<path d="M52.4629 204.925L61.0241 199.112C61.0241 199.112 61.6729 201.532 58.6029 205.087C55.5329 208.642 55.0423 209.607 55.0423 209.607L52.6211 214.451" stroke="#2F011C" stroke-width="4" stroke-miterlimit="10"/>
<path d="M57.9539 211.707L55.0461 217.357" stroke="#2F011C" stroke-width="4" stroke-miterlimit="10"/>
<path d="M59.7304 215.582L55.6912 220.75" stroke="#2F011C" stroke-width="4" stroke-miterlimit="10"/>
<path d="M31.4556 286.312L21.4425 290.835" stroke="#2F011C" stroke-width="4" stroke-miterlimit="10"/>
<path d="M29.3588 283.405L24.1881 285.181" stroke="#2F011C" stroke-width="4" stroke-miterlimit="10"/>
<path d="M449.754 148.917L451.926 155.027" stroke="#2F011C" stroke-width="4" stroke-miterlimit="10"/>
<path d="M463.316 145.821L456.29 148.969" stroke="#2F011C" stroke-width="4" stroke-miterlimit="10"/>
<path d="M465.377 149.214L456.772 151.634" stroke="#2F011C" stroke-width="4" stroke-miterlimit="10"/>
<path d="M465.132 153.812L457.013 154.54" stroke="#2F011C" stroke-width="4" stroke-miterlimit="10"/>
<path d="M328.936 59.9503C328.936 59.9503 329.542 52.6864 339.618 54.7426" stroke="#2F011C" stroke-width="4" stroke-miterlimit="10"/>
<path d="M335.037 60.073C335.037 60.073 334.392 56.36 330.511 56.5142" stroke="#2F011C" stroke-width="4" stroke-miterlimit="10"/>
<path d="M536.988 261.605H190.921V270.325H536.988V261.605Z" fill="#7BD53D"/>
<path d="M473.736 478.397L492.639 268.146" stroke="#228652" stroke-width="4" stroke-miterlimit="10"/>
<path d="M505.243 269.597L522.207 476.46" stroke="#228652" stroke-width="4" stroke-miterlimit="10"/>
<path d="M477.613 436.735L519.296 437.218" stroke="#228652" stroke-width="4" stroke-miterlimit="10"/>
<path d="M473.736 478.397L492.639 268.146" stroke="#228652" stroke-width="4" stroke-miterlimit="10"/>
<path d="M505.243 269.597L522.207 476.46" stroke="#228652" stroke-width="4" stroke-miterlimit="10"/>
<path d="M477.613 436.735L519.296 437.218" stroke="#228652" stroke-width="4" stroke-miterlimit="10"/>
<path d="M205.705 479.125L224.608 268.873" stroke="#228652" stroke-width="4" stroke-miterlimit="10"/>
<path d="M237.208 270.324L254.172 477.187" stroke="#228652" stroke-width="4" stroke-miterlimit="10"/>
<path d="M209.582 437.463L251.265 437.945" stroke="#228652" stroke-width="4" stroke-miterlimit="10"/>
<path d="M457.017 261.606C457.017 261.606 462.346 239.806 479.31 240.775C496.275 241.743 500.155 261.606 500.155 261.606H457.017Z" fill="#228652"/>
<path d="M468.827 191.065L477.352 235.468C477.388 235.654 477.461 235.832 477.566 235.99C477.671 236.148 477.806 236.284 477.964 236.39C478.121 236.496 478.299 236.57 478.485 236.607C478.671 236.644 478.863 236.644 479.049 236.607C479.404 236.535 479.719 236.332 479.932 236.039C480.144 235.746 480.239 235.384 480.197 235.025L475.295 190.373C475.254 190.004 475.072 189.665 474.786 189.427C474.501 189.189 474.135 189.07 473.764 189.096L470.14 189.345C469.936 189.359 469.737 189.417 469.556 189.514C469.376 189.611 469.218 189.745 469.094 189.908C468.969 190.071 468.881 190.258 468.835 190.458C468.789 190.658 468.786 190.865 468.827 191.065Z" fill="#228652"/>
<path d="M471.169 183.07C470.932 183.824 470.477 184.492 469.861 184.988C469.244 185.484 468.495 185.786 467.707 185.856C466.919 185.926 466.128 185.761 465.434 185.382C464.739 185.003 464.173 184.426 463.807 183.726C463.441 183.025 463.29 182.231 463.375 181.445C463.46 180.659 463.777 179.915 464.284 179.309C464.792 178.702 465.468 178.26 466.227 178.038C466.987 177.815 467.795 177.823 468.55 178.06C469.561 178.377 470.406 179.083 470.897 180.023C471.388 180.962 471.486 182.058 471.169 183.07Z" fill="#228652"/>
<path d="M429.217 208.041L456.867 183.801C457.205 183.505 457.645 183.352 458.094 183.376C458.544 183.401 458.965 183.6 459.269 183.932C459.571 184.254 459.737 184.681 459.733 185.123C459.728 185.565 459.554 185.988 459.245 186.305L435.551 211.066C435.364 211.262 435.133 211.41 434.877 211.5C434.622 211.59 434.348 211.619 434.08 211.584L430.123 211.062C429.791 211.022 429.477 210.886 429.221 210.67C428.964 210.455 428.777 210.169 428.68 209.848C428.584 209.527 428.584 209.186 428.679 208.865C428.775 208.544 428.962 208.257 429.217 208.041Z" fill="#228652"/>
<path d="M407.897 228.35L434.977 235.986C434.977 235.986 444.267 216.776 427.271 212.763C410.995 208.919 407.897 228.35 407.897 228.35Z" fill="#228652"/>
<path d="M416.316 230.746L426.401 233.613C426.401 233.613 423.505 239.189 419.03 237.386C414.556 235.582 416.316 230.746 416.316 230.746Z" fill="#7BD53D"/>
<path d="M236.453 0H140.543C136.11 0 132.516 3.5921 132.516 8.02318V52.291C132.516 56.7221 136.11 60.3142 140.543 60.3142H236.453C240.886 60.3142 244.48 56.7221 244.48 52.291V8.02318C244.48 3.5921 240.886 0 236.453 0Z" fill="#228652"/>
<path d="M129.842 75.3799H66.8474C62.4142 75.3799 58.8203 78.972 58.8203 83.4031V109.94C58.8203 114.371 62.4142 117.963 66.8474 117.963H129.842C134.275 117.963 137.869 114.371 137.869 109.94V83.4031C137.869 78.972 134.275 75.3799 129.842 75.3799Z" stroke="#7BD53D" stroke-width="6" stroke-miterlimit="10"/>
<path d="M150.932 19.9849L222.911 19.2573" stroke="#7BD53D" stroke-width="6" stroke-miterlimit="10"/>
<path d="M150.568 32.7017L201.1 31.812" stroke="#7BD53D" stroke-width="6" stroke-miterlimit="10"/>
<path d="M150.568 43.9634L178.926 43.5996" stroke="#7BD53D" stroke-width="6" stroke-miterlimit="10"/>
<path d="M69.8701 87.2031H121.85" stroke="#7BD53D" stroke-width="6" stroke-miterlimit="10"/>
<path d="M69.8701 96.2861L89.1367 96.6499" stroke="#7BD53D" stroke-width="6" stroke-miterlimit="10"/>
<path d="M69.8701 106.82L109.855 107.184" stroke="#7BD53D" stroke-width="6" stroke-miterlimit="10"/>
<path d="M188.013 43.4375H204.815" stroke="#7BD53D" stroke-width="6" stroke-miterlimit="10"/>
<path d="M99.1536 96.4048H106.101" stroke="#7BD53D" stroke-width="6" stroke-miterlimit="10"/>
<path d="M212.854 43.3584H219.152" stroke="#7BD53D" stroke-width="6" stroke-miterlimit="10"/>
<path d="M208.249 31.128L219.88 31.0054" stroke="#7BD53D" stroke-width="6" stroke-miterlimit="10"/>
<path d="M5.61377 388.474L5.93026 438.617C5.94652 441.234 6.98771 443.74 8.83064 445.598C10.6736 447.457 13.1715 448.519 15.7891 448.558L56.2132 449.16" stroke="#228652" stroke-width="4" stroke-miterlimit="10"/>
<path d="M19.2824 365.954C19.2824 365.954 9.9537 372.115 7.78967 379.94" stroke="#228652" stroke-width="4" stroke-miterlimit="10"/>
<path d="M416.387 30.4675L417.388 73.9247L455.866 71.9239V26.9719L416.387 30.4675Z" fill="white" stroke="#7BD53D" stroke-width="6" stroke-miterlimit="10"/>
<path d="M420.886 40.9581L446.371 38.9612" stroke="#7BD53D" stroke-width="6" stroke-miterlimit="10"/>
<path d="M422.385 50.4484L435.88 49.9502" stroke="#7BD53D" stroke-width="6" stroke-miterlimit="10"/>
<path d="M423.386 61.4371L441.375 59.9385" stroke="#7BD53D" stroke-width="6" stroke-miterlimit="10"/>
<path d="M496.346 123.871L497.845 143.852L523.829 140.854V122.372L496.346 123.871Z" stroke="#7BD53D" stroke-width="6" stroke-miterlimit="10"/>
<path d="M504.464 131.491L509.714 135.235L516.835 127.37" fill="white"/>
<path d="M504.464 131.491L509.714 135.235L516.835 127.37" stroke="#7BD53D" stroke-width="6" stroke-miterlimit="10"/>
<path d="M143.162 215.028C149.992 215.028 155.529 209.494 155.529 202.667C155.529 195.84 149.992 190.306 143.162 190.306C136.332 190.306 130.795 195.84 130.795 202.667C130.795 209.494 136.332 215.028 143.162 215.028Z" stroke="#7BD53D" stroke-width="6" stroke-miterlimit="10"/>
<path d="M138.53 201.485L142.949 206.788L148.551 199.128" stroke="#7BD53D" stroke-width="6" stroke-miterlimit="10"/>
<path d="M573.804 250.747C573.804 250.747 563.811 261.736 557.813 304.189C551.815 346.642 558.438 376.864 558.438 376.864L571.169 376.097C571.169 376.097 569.681 256.86 573.804 250.747Z" fill="#7BD53D"/>
<path d="M567.058 273.844C567.058 273.844 561.061 355.135 566.683 385.852" stroke="#228652" stroke-width="4" stroke-miterlimit="10"/>
<path d="M614.002 269.85C614.002 269.85 601.343 277.624 583.749 316.728C566.156 355.831 564.099 386.718 564.099 386.718L576.545 389.545C576.545 389.545 608.357 274.579 614.002 269.85Z" fill="#7BD53D"/>
<path d="M601.085 290.159C601.085 290.159 572.672 366.563 569.511 397.632" stroke="#228652" stroke-width="4" stroke-miterlimit="10"/>
<path d="M534.499 291.08C534.499 291.08 548.195 301.12 558.964 342.921C569.733 384.721 563.316 415.469 563.316 415.469L546.795 415.892C546.795 415.892 540.263 296.814 534.499 291.08Z" fill="#7BD53D"/>
<path d="M544.86 313.509C544.86 313.509 558.387 394.045 553.303 425.201" stroke="#228652" stroke-width="4" stroke-miterlimit="10"/>
<path d="M520.882 328.053C520.882 328.053 530.907 332.149 544.033 356.338C557.16 380.526 557.955 400.538 557.955 400.538L547.804 403.354C547.804 403.354 525.333 330.702 520.882 328.053Z" fill="#7BD53D"/>
<path d="M530.76 340.323C530.76 340.323 551.586 388.043 553.267 408.103" stroke="#228652" stroke-width="4" stroke-miterlimit="10"/>
<path d="M620 334.747C620 334.747 609.473 334.419 592.497 349.587C575.521 364.756 571.343 381.036 571.343 381.036L580.838 387.133C580.838 387.133 615.189 335.289 620 334.747Z" fill="#7BD53D"/>
<path d="M608.234 341.244C608.234 341.244 579.71 373.048 574.662 389.039" stroke="#228652" stroke-width="4" stroke-miterlimit="10"/>
<path d="M536.323 374.614L542.321 475.009H582.796L592.544 371.617L536.323 374.614Z" fill="#228652"/>
<path d="M537.075 391.847L590.669 389.972L592.544 371.617L536.323 374.614L537.075 382.855" stroke="#7BD53D" stroke-width="6" stroke-miterlimit="10"/>
<path d="M352.407 367.277C356.573 366.134 358.373 359.468 356.429 352.388C354.484 345.308 349.531 340.494 345.365 341.637C341.2 342.78 339.399 349.446 341.344 356.527C343.288 363.607 348.242 368.42 352.407 367.277Z" fill="#7BD53D"/>
<path d="M309.119 365.905C313.285 364.762 315.085 358.096 313.141 351.015C311.196 343.935 306.243 339.122 302.078 340.265C297.912 341.408 296.112 348.074 298.056 355.154C300.001 362.234 304.954 367.048 309.119 365.905Z" fill="#7BD53D"/>
<path d="M160.023 333.644C159.232 335.075 158.085 336.076 156.688 336.459C152.522 337.602 147.569 332.79 145.611 325.708C144.634 322.149 144.602 318.681 145.35 315.976C151.248 317.257 155.434 318.978 156.661 321.279C157.598 323.015 158.745 327.42 160.023 333.644Z" fill="#7BD53D"/>
</g>
<defs>
<clipPath id="clip0_773_1179">
<rect width="620" height="483" fill="white"/>
</clipPath>
</defs>
</svg>
