<svg width="396" height="377" viewBox="0 0 396 377" fill="none" xmlns="http://www.w3.org/2000/svg">
<path d="M294.202 101.104L310.132 172.262L88.6267 221.849L72.6973 150.691L294.202 101.104Z" fill="#E79A23"/>
<path d="M87.8548 222.362C87.7925 222.268 87.7467 222.163 87.722 222.051L71.7926 150.893C71.6814 150.394 71.9956 149.897 72.4955 149.786L294.001 100.199C294.241 100.145 294.492 100.188 294.699 100.32C294.907 100.451 295.054 100.663 295.108 100.902L311.037 172.059C311.149 172.559 310.834 173.056 310.335 173.167L88.8308 222.753C88.5913 222.808 88.3389 222.763 88.1318 222.632C88.0203 222.562 87.9259 222.469 87.8548 222.362ZM73.8066 151.393L89.3314 220.74L309.025 171.559L293.5 102.212L73.8066 151.393Z" fill="black"/>
<path d="M88.6266 221.848L19.3381 199.998L72.698 150.691L88.6266 221.848Z" fill="white"/>
<path d="M18.5639 200.512C18.5024 200.419 18.457 200.313 18.4323 200.2C18.3596 199.877 18.4642 199.542 18.7071 199.317L72.0682 150.01C72.3123 149.785 72.6555 149.706 72.973 149.805C73.2894 149.904 73.5292 150.165 73.6019 150.488L89.5313 221.646C89.6039 221.969 89.4997 222.308 89.2548 222.532C89.0107 222.757 88.6632 222.832 88.3476 222.734L19.0579 200.884C18.8519 200.819 18.6792 200.686 18.5639 200.512ZM72.1442 152.466L21.1417 199.594L87.3695 220.48L72.1442 152.466Z" fill="black"/>
<path d="M19.3365 199.999L46.7603 174.658L54.9465 211.228L19.3365 199.999Z" fill="black"/>
<path d="M83.6328 203.508C83.5712 203.416 83.5274 203.311 83.5011 203.197C83.3888 202.698 83.7041 202.2 84.204 202.089L286.373 156.83C286.873 156.719 287.369 157.033 287.48 157.533C287.592 158.033 287.278 158.531 286.778 158.642L84.6087 203.9C84.2227 203.986 83.8388 203.818 83.6328 203.508Z" fill="black"/>
<path d="M76.1447 170.06C76.0839 169.968 76.0394 169.863 76.013 169.748C75.9018 169.248 76.2148 168.753 76.7148 168.641L278.885 123.383C279.385 123.272 279.882 123.586 279.994 124.085C280.105 124.585 279.792 125.083 279.292 125.194L77.1206 170.451C76.7347 170.538 76.3507 170.37 76.1447 170.06Z" fill="black"/>
<path d="M290.797 176.591L314.144 171.364C333.794 166.964 346.157 147.47 341.758 127.821C337.36 108.17 317.865 95.8063 298.215 100.206L274.867 105.434L290.797 176.591Z" fill="black"/>
<path d="M294.201 101.105L310.13 172.263L279.029 179.224L263.1 108.066L294.201 101.105Z" fill="white"/>
<path d="M278.256 179.738C278.193 179.644 278.148 179.539 278.123 179.427L262.195 108.268C262.082 107.769 262.397 107.273 262.896 107.162L293.998 100.198C294.238 100.145 294.491 100.188 294.699 100.32C294.906 100.451 295.053 100.662 295.107 100.9L311.036 172.06C311.147 172.56 310.833 173.057 310.333 173.168L279.232 180.129C278.991 180.182 278.741 180.14 278.533 180.008C278.421 179.938 278.327 179.845 278.256 179.738ZM264.208 108.769L279.732 178.116L309.023 171.559L293.499 102.211L264.208 108.769Z" fill="black"/>
<path d="M231.716 97.4383C226.511 90.4331 197.303 80.6187 163.047 83.4273C153.816 84.1837 149.895 88.5973 149.895 88.5973C149.895 88.5973 124.419 82.7145 107.188 105.699C94.4588 122.679 97.6224 135.227 97.6224 135.227C84.564 148.244 84.2779 160.344 90.9907 168.504C101.182 180.891 121.088 174.709 141.64 155.721C154.065 144.239 176.769 127.393 176.769 127.393L239.29 113.397L242.803 112.61C242.803 112.61 236.921 104.444 231.716 97.4383Z" fill="white"/>
<path d="M88.9528 167.311C82.7957 158.043 85.566 146.128 96.6126 134.927C96.1447 132.312 94.9021 120.542 106.446 105.144C122.482 83.7534 145.837 86.9219 149.588 87.5939C150.817 86.4484 154.994 83.1578 162.972 82.5027C196.809 79.729 226.728 89.167 232.462 96.885C237.611 103.816 243.497 111.987 243.556 112.069C243.731 112.311 243.781 112.649 243.67 112.941C243.558 113.232 243.31 113.448 243.006 113.517L177.164 128.256C175.124 129.775 153.976 145.584 142.27 156.402C127.934 169.648 114.146 176.542 103.445 175.809C98.0694 175.442 93.6378 173.182 90.2739 169.093C89.7952 168.512 89.3554 167.917 88.9528 167.311ZM230.972 97.9913C226.408 91.8481 198.323 81.4657 163.123 84.3516C154.426 85.0645 150.623 89.1755 150.586 89.2174C150.36 89.4671 150.014 89.5786 149.686 89.5033C149.438 89.4459 124.582 84.0452 107.931 106.258C95.6097 122.692 98.4902 134.878 98.5212 135C98.6015 135.317 98.5087 135.654 98.2769 135.885C86.7812 147.344 84.3951 159.017 91.7074 167.915C94.734 171.594 98.7256 173.627 103.572 173.958C113.758 174.654 127.054 167.937 141.011 155.04C153.331 143.656 175.988 126.817 176.216 126.649C176.32 126.571 176.439 126.516 176.566 126.488L241.227 112.013C239.426 109.52 234.975 103.38 230.972 97.9913Z" fill="black"/>
<path d="M295.799 218.291L285.52 177.721L222.129 191.314C169.278 195.363 113.775 169.938 106.257 198.465C100.132 221.712 139.365 232.281 161.742 235.227C166.747 235.887 170.426 240.324 171.325 245.292C177.846 281.309 213.297 304.442 248.89 295.905C283.419 287.622 304.519 252.713 295.799 218.291Z" fill="white"/>
<path d="M107.834 213.273C104.775 208.668 103.943 203.608 105.36 198.229C110.232 179.741 133.821 182.868 163.683 186.827C181.666 189.211 202.049 191.912 221.996 190.393L285.326 176.813C285.815 176.708 286.297 177.006 286.42 177.493L296.698 218.064C300.977 234.954 298.37 252.468 289.357 267.38C280.344 282.291 266.05 292.743 249.107 296.807C231.642 300.997 213.739 297.897 198.698 288.082C183.656 278.267 173.611 263.129 170.412 245.456C169.521 240.54 165.906 236.712 161.62 236.147C141.238 233.463 116.42 226.065 107.891 213.359C107.872 213.33 107.853 213.302 107.834 213.273ZM284.841 178.816L222.323 192.221C202.04 193.783 181.532 191.064 163.439 188.665C134.483 184.826 111.609 181.796 107.154 198.702C105.871 203.576 106.654 208.177 109.432 212.324C117.616 224.519 141.882 231.677 161.863 234.308C166.938 234.976 171.205 239.426 172.237 245.126C175.345 262.293 185.103 276.996 199.712 286.528C214.321 296.061 231.711 299.071 248.674 295.002C265.131 291.055 279.015 280.904 287.769 266.42C296.523 251.936 299.054 234.925 294.898 218.519L284.841 178.816Z" fill="black"/>
<path d="M296.906 223.614C288.928 247.298 269.32 266.499 243.185 272.768C217.19 279.004 191.263 270.912 173.459 253.761C183.578 284.84 216.173 303.752 248.89 295.904C281.64 288.047 302.303 256.241 296.906 223.614Z" fill="black"/>
<path d="M96.8502 135.74C96.5991 135.362 96.655 134.846 97.0048 134.535L149.279 87.9052C149.662 87.5635 150.247 87.5981 150.589 87.9809C150.931 88.3617 150.898 88.9488 150.515 89.2905L98.2415 135.919C97.8587 136.261 97.2728 136.227 96.9311 135.844C96.9019 135.81 96.8739 135.776 96.8502 135.74Z" fill="black"/>
</svg>
