<svg width="355" height="402" viewBox="0 0 355 402" fill="none" xmlns="http://www.w3.org/2000/svg">
<mask id="mask0_773_1008" style="mask-type:luminance" maskUnits="userSpaceOnUse" x="0" y="0" width="402" height="402">
<path d="M402 0H0V402H402V0Z" fill="white"/>
</mask>
<g mask="url(#mask0_773_1008)">
<path d="M267.831 202.196C293.259 202.196 314.828 202.196 327.799 202.196" stroke="#B3E723"/>
<path d="M344.174 200C344.174 209.139 336.764 216.549 327.625 216.549C318.486 216.549 311.077 209.139 311.077 200C311.077 190.861 318.486 183.451 327.625 183.451C336.764 183.451 344.174 190.861 344.174 200Z" fill="#B3E723"/>
<path d="M271.045 118.812C287.624 118.812 301.064 155.161 301.064 200C301.064 244.839 287.624 281.188 271.045 281.188C254.465 281.188 241.026 244.839 241.026 200C241.026 155.161 254.465 118.812 271.045 118.812Z" stroke="black" stroke-miterlimit="10"/>
<path d="M291.058 118.812C307.637 118.812 321.077 155.161 321.077 200C321.077 244.839 307.637 281.188 291.058 281.188C274.478 281.188 261.039 244.839 261.039 200C261.039 155.161 274.478 118.812 291.058 118.812Z" stroke="black" stroke-width="3" stroke-miterlimit="10"/>
<path d="M311.07 118.812C327.65 118.812 341.089 155.161 341.089 200C341.089 244.839 327.65 281.188 311.07 281.188C294.491 281.188 281.051 244.839 281.051 200C281.051 155.161 294.491 118.812 311.07 118.812Z" stroke="black" stroke-miterlimit="10"/>
</g>
</svg>
