<svg width="369" height="292" viewBox="0 0 369 292" fill="none" xmlns="http://www.w3.org/2000/svg">
<path d="M263.798 134.751C268.064 135.738 270.726 140.004 269.739 144.271C268.751 148.537 264.485 151.199 260.219 150.211C255.952 149.224 253.29 144.958 254.278 140.691C255.266 136.425 259.532 133.763 263.798 134.751Z" fill="#B3E723"/>
<path d="M98.7676 87.3301C103.034 88.3178 105.696 92.5837 104.708 96.8501C103.721 101.116 99.4547 103.778 95.1883 102.791C90.9219 101.803 88.2599 97.5372 89.2476 93.2708C90.2353 89.0044 94.5012 86.3424 98.7676 87.3301Z" fill="#B3E723"/>
<path d="M89.5002 215.934C93.7666 216.922 96.4286 221.188 95.4409 225.454C94.4532 229.721 90.1873 232.383 85.921 231.395C81.6546 230.407 78.9926 226.141 79.9803 221.875C80.968 217.609 85.2339 214.947 89.5002 215.934Z" fill="#B3E723"/>
<path d="M268.649 61.3827C268.416 60.1789 267.249 59.3909 266.045 59.6241C264.841 59.8574 264.053 61.0241 264.287 62.2279C264.52 63.4317 265.687 64.2197 266.89 63.9865C268.094 63.7533 268.882 62.5865 268.649 61.3827Z" fill="#B3E723"/>
<path d="M280.249 108.041C280.016 106.837 278.849 106.049 277.645 106.282C276.442 106.515 275.654 107.682 275.887 108.886C276.12 110.09 277.287 110.878 278.491 110.644C279.694 110.411 280.482 109.245 280.249 108.041Z" fill="#B3E723"/>
<path d="M244.17 109.333C243.937 108.13 242.77 107.342 241.566 107.575C240.362 107.808 239.574 108.975 239.807 110.179C240.041 111.382 241.207 112.17 242.411 111.937C243.615 111.704 244.403 110.537 244.17 109.333Z" fill="#B3E723"/>
<path d="M53.2898 202.56C51.9432 203.611 49.9968 203.37 48.946 202.024C47.8953 200.677 48.1355 198.731 49.4821 197.68C50.8286 196.629 52.775 196.87 53.8258 198.216C54.8765 199.563 54.6363 201.509 53.2898 202.56Z" fill="#B3E723"/>
<path d="M108.166 164.18C106.82 165.231 104.873 164.99 103.822 163.644C102.772 162.297 103.012 160.351 104.359 159.3C105.705 158.249 107.652 158.49 108.702 159.836C109.753 161.183 109.513 163.129 108.166 164.18Z" fill="#B3E723"/>
<path d="M71.4626 129.807C70.116 130.858 68.1696 130.618 67.1189 129.271C66.0681 127.924 66.3083 125.978 67.6549 124.927C69.0015 123.877 70.9479 124.117 71.9986 125.463C73.0494 126.81 72.8092 128.756 71.4626 129.807Z" fill="#B3E723"/>
<path d="M221.079 45.6753C220.715 42.1909 217.591 39.6574 214.106 40.0215C210.622 40.3856 208.088 43.5103 208.453 46.9947C208.817 50.4791 211.941 53.0125 215.426 52.6484C218.91 52.2843 221.444 49.1597 221.079 45.6753Z" fill="#B3E723"/>
<path d="M242.478 181.365C242.114 177.881 238.989 175.347 235.505 175.711C232.021 176.075 229.487 179.2 229.851 182.684C230.215 186.169 233.34 188.702 236.824 188.338C240.309 187.974 242.842 184.849 242.478 181.365Z" fill="#B3E723"/>
<path d="M139.465 176.06C139.101 172.576 135.976 170.042 132.492 170.406C129.007 170.77 126.474 173.895 126.838 177.379C127.202 180.864 130.327 183.397 133.811 183.033C137.295 182.669 139.829 179.544 139.465 176.06Z" fill="#B3E723"/>
<path d="M265.233 166.22C283.031 212.159 253.135 245.716 198.515 241.108C143.896 236.5 85.0985 195.459 67.3008 149.52C49.5032 103.581 79.3997 70.024 134.019 74.6323C188.639 79.2406 247.436 120.281 265.233 166.22Z" stroke="#98C421" stroke-width="1.5822"/>
<path d="M272.032 99.7408C317.415 118.912 320.725 163.733 279.418 199.766C238.112 235.798 167.728 249.488 122.345 230.317C76.9619 211.145 73.6519 166.324 114.958 130.292C156.264 94.2592 226.649 80.5694 272.032 99.7408Z" stroke="#88AD23" stroke-width="1.5822"/>
</svg>
