<svg width="372" height="372" viewBox="0 0 372 372" fill="none" xmlns="http://www.w3.org/2000/svg">
<g filter="url(#filter0_d_773_191)">
<mask id="mask0_773_191" style="mask-type:luminance" maskUnits="userSpaceOnUse" x="0" y="0" width="372" height="372">
<path d="M0 5.63884L365.585 0L371.224 365.585L5.63884 371.224L0 5.63884Z" fill="white"/>
</mask>
<g mask="url(#mask0_773_191)">
<mask id="mask1_773_191" style="mask-type:luminance" maskUnits="userSpaceOnUse" x="0" y="0" width="372" height="372">
<path d="M365.585 0L0 5.63884L5.63884 371.224L371.224 365.585L365.585 0Z" fill="white"/>
</mask>
<g mask="url(#mask1_773_191)">
<path d="M182.949 267.642C183.519 268.1 184.13 268.574 184.777 269.055C198.998 279.671 230.477 295.279 252.522 301.966C276.515 309.436 297.078 256.003 284.708 223.775C280.564 212.977 272.723 204.559 260.077 201.608C239.918 197.315 219.862 193.911 205.51 187.134C191.158 180.358 169.774 257.046 182.949 267.642Z" fill="#B2C18A"/>
<path d="M184.777 269.054C198.998 279.67 230.477 295.279 252.522 301.965C276.515 309.436 297.078 256.003 284.708 223.775C282.649 234.677 275.075 245.57 268.153 242.258C258.284 237.536 249.646 225.17 245.83 223.434C242.01 221.696 223.99 220.185 211.647 234.447C203.569 243.781 169.58 260.684 184.777 269.054Z" fill="#7A8361"/>
<path d="M182.949 267.642C183.519 268.1 184.13 268.574 184.777 269.055C198.998 279.671 230.477 295.279 252.522 301.966C276.515 309.436 297.078 256.003 284.708 223.775C280.564 212.977 272.723 204.559 260.077 201.608C239.918 197.315 219.862 193.911 205.51 187.134C191.158 180.358 169.774 257.046 182.949 267.642Z" stroke="black" stroke-width="2" stroke-linecap="round" stroke-linejoin="round"/>
<path d="M194.21 275.333C194.218 275.354 194.254 275.412 194.317 275.504C195.067 276.698 199.663 283.694 206.379 287.802C213.734 292.31 232.695 300.819 250.46 285.738C268.224 270.652 272.345 237.412 260.849 211.765C258.506 206.79 254.503 201.873 252.197 199.551C248.686 195.673 242.638 196.319 242.638 196.319C242.638 196.319 240.855 193.518 239.078 192.72C237.698 192.101 233.518 192.257 233.518 192.257C233.048 191.825 232.594 191.408 232.151 191.008L232.136 190.996C225.392 184.935 221.26 182.365 217.759 182.912C214.022 183.496 209.558 186.587 208.443 188.438C212.612 190.072 216.723 191.478 216.723 191.478C222.956 194.905 239.042 208.022 242.011 221.696C244.98 235.37 248.27 264.571 222.388 277.598C208.791 283.722 194.577 275.535 194.21 275.333Z" fill="#BDEC3B"/>
<path d="M194.21 275.333C194.218 275.354 194.254 275.412 194.317 275.504C195.067 276.698 199.663 283.694 206.379 287.802C213.734 292.31 232.695 300.819 250.46 285.738C268.224 270.652 272.345 237.412 260.849 211.765C258.506 206.79 254.503 201.873 252.197 199.551C248.686 195.673 242.638 196.319 242.638 196.319C242.638 196.319 240.855 193.518 239.078 192.72C237.698 192.101 233.518 192.257 233.518 192.257C233.048 191.825 232.594 191.408 232.151 191.008L232.136 190.996C225.392 184.935 221.26 182.365 217.759 182.912C214.022 183.496 209.558 186.587 208.443 188.438C212.612 190.072 216.723 191.478 216.723 191.478C222.956 194.905 239.042 208.022 242.011 221.696C244.98 235.37 248.27 264.571 222.388 277.598C208.791 283.722 194.577 275.535 194.21 275.333Z" stroke="black" stroke-width="2" stroke-linecap="round" stroke-linejoin="round"/>
<path d="M194.21 275.332C194.217 275.355 194.254 275.411 194.317 275.505C200.351 281.427 216.465 287.35 227.838 281.455C239.112 275.611 252.787 258.414 252.394 241.311C251.928 221.012 244.594 205.66 234.971 194.09L232.15 191.006L232.135 190.998C228.804 188.002 226.197 185.956 223.945 184.672C221.639 183.352 219.707 182.833 217.758 182.912C213.98 183.063 209.559 186.588 208.445 188.44C212.612 190.072 216.723 191.477 216.723 191.477C218.403 192.4 220.674 194.048 223.173 196.228C229.962 202.146 238.415 211.976 241.137 221.832C245.371 237.145 248.203 264.134 222.319 277.162C208.722 283.286 194.578 275.534 194.21 275.332Z" fill="#B3E723"/>
<path d="M194.21 275.332C194.217 275.355 194.254 275.411 194.317 275.505C200.351 281.427 216.465 287.35 227.838 281.455C239.112 275.611 252.787 258.414 252.394 241.311C251.928 221.012 244.594 205.66 234.971 194.09L232.15 191.006L232.135 190.998C228.804 188.002 226.197 185.956 223.945 184.672C221.639 183.352 219.707 182.833 217.758 182.912C213.98 183.063 209.559 186.588 208.445 188.44C212.612 190.072 216.723 191.477 216.723 191.477C218.403 192.4 220.674 194.048 223.173 196.228C229.962 202.146 238.415 211.976 241.137 221.832C245.371 237.145 248.203 264.134 222.319 277.162C208.722 283.286 194.578 275.534 194.21 275.332Z" stroke="black" stroke-width="2" stroke-linecap="round" stroke-linejoin="round"/>
<path d="M261.775 270.168C257.023 268.359 249.619 265.524 248.542 265.136C246.919 264.551 245.623 267.885 242.908 270.99C239.957 274.365 237.421 276.609 238.19 277.497C239.837 279.398 248.242 284.29 251.926 285.021C255.611 285.752 264.66 271.027 261.775 270.168Z" fill="#BDEC3B"/>
<path d="M261.775 270.168C257.023 268.359 249.619 265.524 248.542 265.136C246.919 264.551 245.623 267.885 242.908 270.99C239.957 274.365 237.421 276.609 238.19 277.497C239.837 279.398 248.242 284.29 251.926 285.021C255.611 285.752 264.66 271.027 261.775 270.168Z" stroke="black" stroke-width="2" stroke-miterlimit="10"/>
<path d="M242.638 196.319C246.372 201.445 249.605 208.406 250.373 210.271L242.638 196.319Z" fill="white"/>
<path d="M242.638 196.319C246.372 201.445 249.605 208.406 250.373 210.271" stroke="black" stroke-width="2" stroke-linecap="round" stroke-linejoin="round"/>
<path d="M252.724 217.688C252.332 215.684 251.773 214.084 251.773 214.084L252.724 217.688Z" fill="white"/>
<path d="M252.724 217.688C252.332 215.684 251.773 214.084 251.773 214.084" stroke="black" stroke-width="2" stroke-linecap="round" stroke-linejoin="round"/>
<path d="M257.025 272.191C254.247 271.133 249.918 269.476 249.289 269.249C248.34 268.907 247.582 270.856 245.995 272.671C244.27 274.645 242.786 275.957 243.236 276.476C244.199 277.587 249.113 280.448 251.267 280.875C253.421 281.302 258.712 272.693 257.025 272.191Z" fill="#BDEC3B"/>
<path d="M257.025 272.191C254.247 271.133 249.918 269.476 249.289 269.249C248.34 268.907 247.582 270.856 245.995 272.671C244.27 274.645 242.786 275.957 243.236 276.476C244.199 277.587 249.113 280.448 251.267 280.875C253.421 281.302 258.712 272.693 257.025 272.191Z" stroke="black" stroke-width="2" stroke-miterlimit="10"/>
<path d="M268.582 249.481C263.874 249.225 256.533 248.812 255.472 248.773C253.873 248.714 253.669 252.025 252.148 255.535C250.494 259.35 248.887 262.048 249.817 262.615C251.809 263.83 260.615 265.778 264.076 265.384C267.537 264.989 271.373 249.425 268.582 249.481Z" fill="#BDEC3B"/>
<path d="M268.582 249.481C263.874 249.225 256.533 248.812 255.472 248.773C253.873 248.714 253.669 252.025 252.148 255.535C250.494 259.35 248.887 262.048 249.817 262.615C251.809 263.83 260.615 265.778 264.076 265.384C267.537 264.989 271.373 249.425 268.582 249.481Z" stroke="black" stroke-width="2" stroke-miterlimit="10"/>
<path d="M264.795 252.749C262.13 252.603 257.974 252.369 257.374 252.348C256.468 252.314 256.353 254.189 255.491 256.176C254.555 258.336 253.646 259.863 254.172 260.184C255.3 260.872 260.285 261.975 262.245 261.751C264.204 261.528 266.376 252.716 264.795 252.749Z" fill="#BDEC3B"/>
<path d="M264.795 252.749C262.13 252.603 257.974 252.369 257.374 252.348C256.468 252.314 256.353 254.189 255.491 256.176C254.555 258.336 253.646 259.863 254.172 260.184C255.3 260.872 260.285 261.975 262.245 261.751C264.204 261.528 266.376 252.716 264.795 252.749Z" stroke="black" stroke-width="2" stroke-miterlimit="10"/>
<path d="M210.11 188.004C213.612 189.328 217.178 190.597 217.178 190.597C218.588 191.372 220.15 192.361 222.363 194.185C222.317 193.668 222 192.644 221.598 192.122C219.626 189.56 216.329 187.776 217.013 186.918C217.699 186.06 221.233 185.199 223.255 185.467C221.318 184.358 219.45 183.74 217.813 183.806C214.639 183.933 211.045 186.449 210.11 188.004Z" fill="white"/>
<path d="M249.516 271.392C248.456 273.112 246.143 275.693 246.143 275.693" stroke="#B3E723" stroke-width="2" stroke-linecap="round" stroke-linejoin="round"/>
<path d="M258.403 254.625C257.982 256.203 256.79 258.74 256.79 258.74" stroke="#B3E723" stroke-width="2" stroke-linecap="round" stroke-linejoin="round"/>
<path d="M122.987 273.525C123.203 273.682 123.439 273.843 123.691 274.014C127.61 276.624 135.77 280.653 144.11 282.585C147.593 283.389 151.109 283.827 154.36 283.645C167.612 284.02 182.956 278.548 192.798 269.245C196.492 265.755 199.411 261.722 201.155 257.26C201.155 257.26 219.509 222.942 202.581 194.026C201.893 192.842 201.141 191.67 200.327 190.508C194.297 181.877 173.242 177.077 153.153 175.996C144.155 175.515 135.35 175.776 128.183 176.776C120.416 177.858 114.565 179.807 112.457 182.606C104.064 193.765 118.016 269.949 122.987 273.525Z" fill="#BDEC3B"/>
<path d="M122.987 273.525C123.203 273.682 123.439 273.843 123.691 274.014C127.61 276.624 135.77 280.653 144.11 282.585C147.593 283.389 151.109 283.827 154.36 283.645C167.612 284.02 182.956 278.548 192.798 269.245C196.492 265.755 199.411 261.722 201.155 257.26C201.155 257.26 219.509 222.942 202.581 194.026C201.893 192.842 201.141 191.67 200.327 190.508C194.297 181.877 173.242 177.077 153.153 175.996C144.155 175.515 135.35 175.776 128.183 176.776C120.416 177.858 114.565 179.807 112.457 182.606C104.064 193.765 118.016 269.949 122.987 273.525Z" stroke="black" stroke-width="2" stroke-linecap="round" stroke-linejoin="round"/>
<path d="M152.687 230.272C178.952 238.299 192.268 262.362 192.798 269.246C196.492 265.755 200.263 263.247 202.007 258.784C202.007 258.784 211.845 239.795 211.362 219.689C211.159 211.178 207.615 202.626 202.581 194.027C202.979 201.403 202.038 209.747 197.236 216.106C196.556 217.009 195.798 217.869 194.953 218.685C182.154 231.042 163.887 225.381 154.68 223.24C145.472 221.103 124.622 221.697 152.687 230.272Z" fill="#B2C18A"/>
<path d="M192.798 269.246C196.492 265.755 201.641 261.411 203.385 256.949C203.385 256.949 210.216 240.321 209.733 220.215C209.53 211.704 207.615 202.626 202.581 194.027C202.979 201.403 202.038 209.747 197.236 216.106C197.643 224.429 191.513 230.58 181.087 232.149C192.262 238.656 196.717 256.505 192.798 269.246Z" fill="#7A8361"/>
<path d="M209.713 220.257C209.509 211.746 207.595 202.668 202.56 194.068C203.015 202.491 201.722 212.175 194.932 218.726C182.134 231.084 163.866 225.423 154.66 223.281C145.451 221.144 124.601 221.738 152.666 230.314C178.932 238.341 192.247 262.404 192.778 269.287C196.472 265.796 200.749 261.91 202.493 257.448" stroke="black" stroke-width="2" stroke-linecap="round" stroke-linejoin="round"/>
<path d="M168.205 230.765C173.745 232.41 182.447 232.607 190.476 229.118L168.205 230.765Z" fill="#B2C18A"/>
<path d="M168.205 230.765C173.745 232.41 182.447 232.607 190.476 229.118" stroke="black" stroke-width="2" stroke-linecap="round" stroke-linejoin="round"/>
<path d="M205.709 212.969C205.465 216.078 203.231 219.651 201.877 220.979L205.709 212.969Z" fill="#B2C18A"/>
<path d="M205.709 212.969C205.465 216.078 203.231 219.651 201.877 220.979" stroke="black" stroke-width="2" stroke-linecap="round" stroke-linejoin="round"/>
<path d="M178.998 231.834C183.703 232.701 187.592 237.684 187.592 237.684L178.998 231.834Z" fill="white"/>
<path d="M178.998 231.834C183.703 232.701 187.592 237.684 187.592 237.684" stroke="black" stroke-width="2" stroke-linecap="round" stroke-linejoin="round"/>
<path d="M145.659 208.531C143.588 205.915 141.827 202.698 140.319 199.195C137.336 192.258 135.345 184.191 133.93 177.387C132.56 170.789 131.736 165.382 131.081 163.352C130.146 160.455 122.571 156.075 115.401 146.296C113.975 144.798 112.826 143 112.073 140.949C111.999 140.754 111.932 140.556 111.867 140.354C110.025 134.645 111.652 128.652 115.585 124.652C117.288 122.916 119.425 121.557 121.902 120.758C128.728 118.555 135.965 121.322 139.709 127.05C139.598 126.872 139.485 126.696 139.368 126.524C143.99 131.656 150.046 135.246 157.327 138.384C165.221 141.787 170.909 141.387 180.847 152.15C190.783 162.909 197.491 181.276 199.612 187.852C203.962 201.331 197.126 212.589 186.916 216.426" fill="#BDEC3B"/>
<path d="M145.659 208.531C143.588 205.915 141.827 202.698 140.319 199.195C137.336 192.258 135.345 184.191 133.93 177.387C132.56 170.789 131.736 165.382 131.081 163.352C130.146 160.455 122.571 156.075 115.401 146.296C113.975 144.798 112.826 143 112.073 140.949C111.999 140.754 111.932 140.556 111.867 140.354C110.025 134.645 111.652 128.652 115.585 124.652C117.288 122.916 119.425 121.557 121.902 120.758C128.728 118.555 135.965 121.322 139.709 127.05C139.598 126.872 139.485 126.696 139.368 126.524C143.99 131.656 150.046 135.246 157.327 138.384C165.221 141.787 170.909 141.387 180.847 152.15C190.783 162.909 197.491 181.276 199.612 187.852C203.962 201.331 197.126 212.589 186.916 216.426" stroke="black" stroke-width="2" stroke-miterlimit="10"/>
<path d="M112.383 139.92C112.437 140.114 112.493 140.304 112.555 140.492C113.223 142.586 114.32 144.433 115.724 145.964L115.728 145.966C118.528 149.02 122.547 150.806 126.778 150.754C128.015 150.739 129.272 150.564 130.52 150.22C138.372 148.056 142.984 139.935 140.82 132.083C138.656 124.232 130.535 119.62 122.683 121.784C120.307 122.439 118.228 123.637 116.546 125.211C112.66 128.836 110.874 134.442 112.383 139.92Z" fill="#BDEC3B"/>
<path d="M112.03 140.665C112.172 141.181 112.339 141.685 112.529 142.174C110.892 139.161 109.366 135.764 108.075 131.913C106.137 126.13 104.722 119.335 104.249 111.319C103.784 101.088 112.352 95.0612 120.084 95.3488C122.298 95.4313 124.444 96.0292 126.29 97.1969C129.132 98.992 131.264 102.14 131.834 106.813C132.82 114.908 135.118 121.088 138.558 126.057" fill="#BDEC3B"/>
<path d="M111.774 140.742C112.842 142.838 113.971 144.757 115.12 146.518L115.124 146.52C112.036 133.58 115.536 131.671 114.854 125.327C114.172 118.983 115.29 117.604 114.581 110.169C113.873 102.734 120.084 95.3485 126.555 98.1544C118.263 92.9108 103.653 98.1549 104.251 111.318C104.992 123.838 108.02 133.384 111.774 140.742Z" fill="#B3E723"/>
<path d="M108.076 131.913C106.333 122.922 107.224 110.485 109.358 104.736C110.999 100.303 116.079 96.8933 120.085 95.3487C112.353 95.0611 103.785 101.087 104.25 111.318C104.723 119.335 106.138 126.13 108.076 131.913Z" fill="white"/>
<path d="M140.505 128.993C139.642 127.492 138.558 126.056 138.558 126.056C135.118 121.088 132.82 114.908 131.834 106.813C131.264 102.14 129.132 98.9919 126.29 97.1968C124.444 96.0291 122.298 95.4312 120.084 95.3488C112.352 95.0612 103.785 101.087 104.25 111.318C104.723 119.335 106.137 126.13 108.075 131.913C109.366 135.764 110.27 138.657 111.907 141.671C111.907 141.671 113.657 145.11 115.478 146.243" stroke="black" stroke-width="2" stroke-linecap="round" stroke-linejoin="round"/>
<path d="M135.647 123.383C130.783 125.081 128.227 127.357 127.137 128.896" stroke="black" stroke-width="2" stroke-linecap="round" stroke-linejoin="round"/>
<path d="M137.745 126.393C134.712 127.451 133.119 128.871 132.439 129.83" stroke="black" stroke-width="2" stroke-linecap="round" stroke-linejoin="round"/>
<g style="mix-blend-mode:multiply">
<path d="M122.619 271.838L123.692 274.013C127.61 276.624 135.77 280.653 144.111 282.585C148.92 276.932 150.052 269.515 150.052 269.515C166.518 262.367 168.992 251.647 166.029 241.854C163.066 232.057 155.783 230.122 155.783 230.122C155.783 230.122 175.174 203.823 154.003 190.066C155.49 184.283 155.285 179.726 153.154 175.996C151.115 172.42 147.306 169.602 141.529 167.185C136.759 165.191 132.075 170.152 128.183 176.776C122.437 186.552 118.421 199.95 118.421 199.95L122.694 258.625L122.619 271.838Z" fill="#A1CE25"/>
</g>
<path d="M86.1806 199.488L96.6542 194.375L114.701 195.292C114.701 195.292 116.574 195.411 119.447 195.421C127.16 195.452 142.087 194.701 147.482 188.754C154.886 180.592 146.996 170.428 141.529 167.185C139.909 166.223 135.731 165.359 130.502 164.667C118.107 163.022 99.7948 162.362 95.5349 163.737C89.479 165.691 77.0859 174.513 77.9114 179.848C78.7326 185.185 86.5402 194.116 86.1806 199.488Z" fill="#5C7B09"/>
<path d="M86.1806 199.488L96.6542 194.375L114.701 195.292C114.701 195.292 116.574 195.411 119.447 195.421C127.16 195.452 142.087 194.701 147.482 188.754C154.886 180.592 146.996 170.428 141.529 167.185C139.909 166.223 135.731 165.359 130.502 164.667C118.107 163.022 99.7948 162.362 95.5349 163.737C89.479 165.691 77.0859 174.513 77.9114 179.848C78.7326 185.185 86.5402 194.116 86.1806 199.488Z" stroke="black" stroke-width="2" stroke-linecap="round" stroke-linejoin="round"/>
<path d="M85.9105 198.651L96.3413 193.404L101.406 193.804L114.556 194.84C114.556 194.84 116.446 195.014 119.342 195.097C130.2 192.787 139.277 189.918 139.804 186.804C140.929 180.145 136.248 167.999 129.721 162.249C118.982 160.467 103.877 159.357 97.0951 159.938C95.9607 160.035 95.0608 160.182 94.4512 160.378C88.3953 162.333 75.2811 171.797 76.2458 177.564C77.2062 183.332 86.304 194.201 85.9105 198.651Z" fill="#BDEC3B"/>
<path d="M108.814 243.731C108.814 243.731 133.905 238.485 144.624 238.495C144.662 238.495 144.694 238.494 144.727 238.496C155.406 238.566 161.269 234.721 161.13 227.929C160.991 221.137 153.063 215.248 144.916 213.827C143.921 213.653 142.603 213.596 141.04 213.632C129.789 213.889 105.862 219.053 99.1533 221.561C91.5085 224.418 90.3539 233.503 91.0603 236.987C91.7664 240.471 104.694 245.208 108.814 243.731Z" fill="#5C7B09"/>
<path d="M108.814 243.731C108.814 243.731 133.905 238.485 144.624 238.495C144.662 238.495 144.694 238.494 144.727 238.496C155.406 238.566 161.269 234.721 161.13 227.929C160.991 221.137 153.063 215.248 144.916 213.827C143.921 213.653 142.603 213.596 141.04 213.632C129.789 213.889 105.862 219.053 99.1533 221.561C91.5085 224.418 90.3539 233.503 91.0603 236.987C91.7664 240.471 104.694 245.208 108.814 243.731Z" stroke="black" stroke-width="2" stroke-linecap="round" stroke-linejoin="round"/>
<path d="M127.407 274.167C135.091 272.079 135.588 265.85 135.588 265.85C138.695 265.191 143.953 262.851 148.715 259.792C154.739 255.926 159.97 250.914 159.082 246.721C157.785 240.588 151.428 237.45 139.893 239.519C137.304 239.985 134.452 240.714 131.339 241.732C119.665 245.542 114.379 247.204 111.62 248.094C108.866 248.983 102.684 253.67 103.994 258.232C105.305 262.799 115.569 278.004 127.407 274.167Z" fill="#5C7B09"/>
<path d="M127.407 274.167C135.091 272.079 135.588 265.85 135.588 265.85C138.695 265.191 143.953 262.851 148.715 259.792C154.739 255.926 159.97 250.914 159.082 246.721C157.785 240.588 151.428 237.45 139.893 239.519C137.304 239.985 134.452 240.714 131.339 241.732C119.665 245.542 114.379 247.204 111.62 248.094C108.866 248.983 102.684 253.67 103.994 258.232C105.305 262.799 115.569 278.004 127.407 274.167Z" stroke="black" stroke-width="2" stroke-linecap="round" stroke-linejoin="round"/>
<path d="M98.3513 222.019C98.3513 222.019 117.151 219.67 122.859 218.415C127.32 217.436 134.668 215.761 142.33 215.062C144.468 214.868 146.636 214.751 148.771 214.745C158.544 214.722 166.642 198.309 154.003 190.066C150.711 187.919 145.906 186.809 140.459 186.375C124.989 185.15 104.33 189.368 98.4276 190.694C90.4517 192.485 83.5427 203.91 84.0039 207.866C84.4663 211.825 95.0995 222.676 98.3513 222.019Z" fill="#5C7B09"/>
<path d="M98.3513 222.019C98.3513 222.019 117.151 219.67 122.859 218.415C127.32 217.436 134.668 215.761 142.33 215.062C144.468 214.868 146.636 214.751 148.771 214.745C158.544 214.722 166.642 198.309 154.003 190.066C150.711 187.919 145.906 186.809 140.459 186.375C124.989 185.15 104.33 189.368 98.4276 190.694C90.4517 192.485 83.5427 203.91 84.0039 207.866C84.4663 211.825 95.0995 222.676 98.3513 222.019Z" stroke="black" stroke-width="2" stroke-linecap="round" stroke-linejoin="round"/>
<path d="M83.4826 191.916C84.9712 194.634 86.0512 197.056 85.9114 198.651L96.3419 193.404L101.406 193.803C101.673 191.954 100.979 190.026 98.9475 188.056C86.1854 179.287 88.8432 165.025 97.1002 159.943C97.1002 159.943 97.1002 159.943 97.0949 159.938C95.9603 160.034 95.0613 160.18 94.452 160.377C92.5427 160.993 89.9343 162.353 87.2885 164.109C81.5307 167.928 75.587 173.612 76.2463 177.562C76.8614 181.263 80.8215 187.058 83.4826 191.916Z" fill="#B3E723"/>
<path d="M83.4827 191.916C83.5763 186.921 82.8635 180.923 80.8175 177.468C78.7946 174.052 83.589 168.248 88.592 163.688C82.8341 167.507 75.5871 173.612 76.2464 177.562C76.8615 181.263 80.8216 187.058 83.4827 191.916Z" fill="white"/>
<path d="M85.9105 198.651L96.3413 193.404L101.406 193.804L114.556 194.84C114.556 194.84 116.446 195.014 119.342 195.097C130.2 192.787 139.277 189.918 139.804 186.804C140.929 180.145 136.248 167.999 129.721 162.249C118.982 160.467 103.877 159.357 97.0951 159.938C95.9607 160.035 95.0608 160.182 94.4512 160.378C88.3953 162.333 75.2811 171.797 76.2458 177.564C77.2062 183.332 86.304 194.201 85.9105 198.651Z" stroke="black" stroke-width="2" stroke-linecap="round" stroke-linejoin="round"/>
<path d="M96.5644 221.954C96.5644 221.954 112.281 220.11 119.665 218.824C120.469 218.684 121.174 218.55 121.749 218.425C126.33 217.436 133.872 215.747 141.75 215.098C144.23 211.991 147.434 206.234 146.782 200.256C146.082 193.816 142.338 187.912 139.467 184.554C123.528 183.056 102.313 187.29 96.2538 188.626C96.0488 188.67 95.8425 188.723 95.6395 188.784C87.7215 191.037 81.1062 202.612 81.6178 206.717C82.1445 210.936 93.2265 222.614 96.5644 221.954Z" fill="#B3E723"/>
<path d="M93.8153 205.407C97.6507 217.294 109.905 219.024 109.905 219.024L119.665 218.824C120.469 218.684 121.174 218.55 121.749 218.425C126.33 217.437 133.872 215.747 141.75 215.098C144.23 211.992 147.434 206.234 146.782 200.257C146.082 193.816 142.338 187.912 139.467 184.554C123.528 183.056 102.313 187.29 96.2537 188.626C96.0486 188.671 95.8424 188.723 95.6394 188.785C93.1064 192.887 91.3161 197.663 93.8153 205.407Z" fill="#BDEC3B"/>
<path d="M89.5507 217.689C89.6443 212.694 88.0592 208.756 86.0131 205.3C83.9902 201.884 89.1105 194.557 94.1134 189.997C88.3556 193.816 80.9827 201.76 81.6419 205.71C82.257 209.411 84.7263 213.347 89.5507 217.689Z" fill="white"/>
<path d="M96.5644 221.954C96.5644 221.954 112.281 220.11 119.665 218.824C120.469 218.684 121.174 218.55 121.749 218.425C126.33 217.436 133.872 215.747 141.75 215.098C144.23 211.991 147.434 206.234 146.782 200.256C146.082 193.816 142.338 187.912 139.467 184.554C123.528 183.056 102.313 187.29 96.2538 188.626C96.0488 188.67 95.8425 188.723 95.6395 188.784C87.7215 191.037 81.1062 202.612 81.6178 206.717C82.1445 210.936 93.2265 222.614 96.5644 221.954Z" stroke="black" stroke-width="2" stroke-linecap="round" stroke-linejoin="round"/>
<path d="M110.102 247.719C110.102 247.719 112.018 246.946 115.005 245.846C122.532 243.072 136.867 238.219 144.591 238.386C146.371 234.372 148.109 229.142 147.208 225.36C146.02 220.372 143.604 215.64 140.474 211.88C130.532 211.919 110.813 215.785 101.625 218.44C100.355 218.807 99.2894 219.15 98.4744 219.457C90.8384 222.338 89.1655 232.695 89.9472 236.411C90.7267 240.131 105.984 249.206 110.102 247.719Z" fill="#B3E723"/>
<path d="M136.295 260.852C139.399 263.726 143.832 270.552 140.52 276.551" stroke="black" stroke-width="2" stroke-linecap="round" stroke-linejoin="round"/>
<path d="M99.8758 244.633C96.758 241.439 95.1522 238.18 93.9697 234.342C92.7962 230.534 92.2316 225.518 97.2345 220.959C91.4767 224.778 89.3701 231.023 90.0294 234.972C90.6445 238.674 95.0513 240.291 99.8758 244.633Z" fill="white"/>
<path d="M127.678 275.008C135.369 272.944 135.746 266.343 135.746 266.343L135.763 266.338C136.081 266.275 136.424 266.189 136.783 266.087C139.948 265.203 144.6 262.997 148.836 260.173C149.342 257.29 149.653 252.434 147.718 247.075C145.916 242.08 142.287 239.65 139.562 238.486C136.964 238.932 134.109 239.649 130.998 240.667C119.324 244.48 114.035 246.14 111.279 247.03C111.018 247.114 110.729 247.232 110.418 247.383C107.433 248.836 102.527 253.232 103.801 257.638C105.21 262.507 115.843 278.845 127.678 275.008Z" fill="#B3E723"/>
<path d="M100.907 233.317C103.683 240.271 106.272 244.771 115.005 245.845C122.532 243.071 136.867 238.219 144.591 238.385C146.371 234.371 148.109 229.141 147.209 225.359C146.02 220.372 143.605 215.64 140.474 211.879C130.532 211.918 110.813 215.784 101.625 218.439C99.5344 222.841 98.6869 227.763 100.907 233.317Z" fill="#BDEC3B"/>
<path d="M110.102 247.719C110.102 247.719 112.018 246.946 115.005 245.846C122.532 243.072 136.867 238.219 144.591 238.386C146.371 234.372 148.109 229.142 147.208 225.36C146.02 220.372 143.604 215.64 140.474 211.88C130.532 211.919 110.813 215.785 101.625 218.44C100.355 218.807 99.2894 219.15 98.4744 219.457C90.8384 222.338 89.1655 232.695 89.9472 236.411C90.7267 240.131 105.984 249.206 110.102 247.719Z" stroke="black" stroke-width="2" stroke-linecap="round" stroke-linejoin="round"/>
<path d="M111.433 256.718C116.025 265.018 123.374 270.367 135.746 266.343L135.763 266.338C136.115 266.224 136.454 266.14 136.783 266.087C139.948 265.203 144.6 262.997 148.836 260.173C149.342 257.29 149.653 252.434 147.718 247.075C145.916 242.08 142.286 239.65 139.562 238.486C136.964 238.932 134.109 239.649 130.998 240.667C119.324 244.48 114.035 246.14 111.279 247.03C111.018 247.114 110.729 247.232 110.418 247.383C109.471 249.89 109.386 253.015 111.433 256.718Z" fill="#BDEC3B"/>
<path d="M127.678 275.008C135.369 272.944 135.746 266.343 135.746 266.343L135.763 266.338C136.081 266.275 136.424 266.189 136.783 266.087C139.948 265.203 144.6 262.997 148.836 260.173C149.342 257.29 149.653 252.434 147.718 247.075C145.916 242.08 142.287 239.65 139.562 238.486C136.964 238.932 134.109 239.649 130.998 240.667C119.324 244.48 114.035 246.14 111.279 247.03C111.018 247.114 110.729 247.232 110.418 247.383C107.433 248.836 102.527 253.232 103.801 257.638C105.21 262.507 115.843 278.845 127.678 275.008Z" stroke="black" stroke-width="2" stroke-linecap="round" stroke-linejoin="round"/>
<path d="M135.495 266.423C129.926 267.839 124.237 268.005 120.696 265.886" stroke="black" stroke-width="2" stroke-linecap="round" stroke-linejoin="round"/>
<path d="M95.7795 160.089C89.6785 164.406 90.1402 172.863 90.1402 172.863" stroke="black" stroke-width="2" stroke-linecap="round" stroke-linejoin="round"/>
<path d="M95.6393 188.785C91.1328 193.645 93.0525 203.044 93.4338 204.225" stroke="black" stroke-width="2" stroke-linecap="round" stroke-linejoin="round"/>
<path d="M104.196 217.737C99.8798 216.575 96.8007 212.288 96.8007 212.288" stroke="black" stroke-width="2" stroke-linecap="round" stroke-linejoin="round"/>
<path d="M113.424 246.336C106.531 243.658 103.642 239.485 102.569 237.121" stroke="black" stroke-width="2" stroke-linecap="round" stroke-linejoin="round"/>
<path d="M101.951 218.334C98.6768 221.913 99.6518 228.079 99.6518 228.079" stroke="black" stroke-width="2" stroke-linecap="round" stroke-linejoin="round"/>
<path d="M110.418 247.383C107.36 249.469 109.39 254.415 111.318 257.476" stroke="black" stroke-width="2" stroke-linecap="round" stroke-linejoin="round"/>
<path d="M82.8062 206.289C83.3483 206.301 83.916 206.852 83.9054 207.355C83.916 206.852 84.4422 206.285 84.9712 206.256C84.4661 206.26 83.8729 205.637 83.872 205.19C83.8722 205.588 83.3479 206.277 82.8062 206.289Z" fill="#B3E723"/>
<path d="M212.259 183.504C214.248 183.599 215.571 186.716 215.571 186.716C215.571 186.716 216.729 183.51 218.782 183.404C216.725 183.307 215.47 180.193 215.47 180.193C215.47 180.193 214.449 183.444 212.259 183.504Z" fill="#B3E723"/>
<path d="M111.03 101.344C111.249 101.354 111.395 101.698 111.395 101.698C111.395 101.698 111.523 101.344 111.749 101.333C111.522 101.322 111.384 100.979 111.384 100.979C111.384 100.979 111.271 101.337 111.03 101.344Z" fill="#B3E723"/>
<path d="M116.647 53.3042L117.152 52.3557" stroke="black" stroke-width="2" stroke-linecap="round" stroke-linejoin="round"/>
<path d="M138.358 67.8816L138.655 67.8534" stroke="black" stroke-width="2" stroke-linecap="round" stroke-linejoin="round"/>
<path d="M89.584 53.0231L89.7096 52.9104" stroke="black" stroke-width="2" stroke-linecap="round" stroke-linejoin="round"/>
<path d="M70.2296 67.9518L68.63 66.0331" stroke="black" stroke-width="2" stroke-linecap="round" stroke-linejoin="round"/>
<path d="M66.5171 111.193L66.2182 111.185" stroke="black" stroke-width="2" stroke-linecap="round" stroke-linejoin="round"/>
</g>
<mask id="mask2_773_191" style="mask-type:alpha" maskUnits="userSpaceOnUse" x="65" y="51" width="225" height="253">
<mask id="mask3_773_191" style="mask-type:luminance" maskUnits="userSpaceOnUse" x="0" y="0" width="372" height="372">
<path d="M365.585 0L0 5.63884L5.63884 371.224L371.224 365.585L365.585 0Z" fill="white"/>
</mask>
<g mask="url(#mask3_773_191)">
<path d="M182.949 267.642C183.519 268.1 184.13 268.574 184.777 269.055C198.998 279.671 230.477 295.279 252.522 301.966C276.515 309.436 297.078 256.003 284.708 223.775C280.564 212.977 272.723 204.559 260.077 201.608C239.918 197.315 219.862 193.911 205.51 187.134C191.158 180.358 169.774 257.046 182.949 267.642Z" fill="#B2C18A"/>
<path d="M184.777 269.054C198.998 279.67 230.477 295.279 252.522 301.965C276.515 309.436 297.078 256.003 284.708 223.775C282.649 234.677 275.075 245.57 268.153 242.258C258.284 237.536 249.646 225.17 245.83 223.434C242.01 221.696 223.99 220.185 211.647 234.447C203.569 243.781 169.58 260.684 184.777 269.054Z" fill="#7A8361"/>
<path d="M182.949 267.642C183.519 268.1 184.13 268.574 184.777 269.055C198.998 279.671 230.477 295.279 252.522 301.966C276.515 309.436 297.078 256.003 284.708 223.775C280.564 212.977 272.723 204.559 260.077 201.608C239.918 197.315 219.862 193.911 205.51 187.134C191.158 180.358 169.774 257.046 182.949 267.642Z" stroke="black" stroke-width="2" stroke-linecap="round" stroke-linejoin="round"/>
<path d="M194.21 275.333C194.218 275.354 194.254 275.412 194.317 275.504C195.067 276.698 199.663 283.694 206.379 287.802C213.734 292.31 232.695 300.819 250.46 285.738C268.224 270.652 272.345 237.412 260.849 211.765C258.506 206.79 254.503 201.873 252.197 199.551C248.686 195.673 242.638 196.319 242.638 196.319C242.638 196.319 240.855 193.518 239.078 192.72C237.698 192.101 233.518 192.257 233.518 192.257C233.048 191.825 232.594 191.408 232.151 191.008L232.136 190.996C225.392 184.935 221.26 182.365 217.759 182.912C214.022 183.496 209.558 186.587 208.443 188.438C212.612 190.072 216.723 191.478 216.723 191.478C222.956 194.905 239.042 208.022 242.011 221.696C244.98 235.37 248.27 264.571 222.388 277.598C208.791 283.722 194.577 275.535 194.21 275.333Z" fill="#BDEC3B"/>
<path d="M194.21 275.333C194.218 275.354 194.254 275.412 194.317 275.504C195.067 276.698 199.663 283.694 206.379 287.802C213.734 292.31 232.695 300.819 250.46 285.738C268.224 270.652 272.345 237.412 260.849 211.765C258.506 206.79 254.503 201.873 252.197 199.551C248.686 195.673 242.638 196.319 242.638 196.319C242.638 196.319 240.855 193.518 239.078 192.72C237.698 192.101 233.518 192.257 233.518 192.257C233.048 191.825 232.594 191.408 232.151 191.008L232.136 190.996C225.392 184.935 221.26 182.365 217.759 182.912C214.022 183.496 209.558 186.587 208.443 188.438C212.612 190.072 216.723 191.478 216.723 191.478C222.956 194.905 239.042 208.022 242.011 221.696C244.98 235.37 248.27 264.571 222.388 277.598C208.791 283.722 194.577 275.535 194.21 275.333Z" stroke="black" stroke-width="2" stroke-linecap="round" stroke-linejoin="round"/>
<path d="M194.21 275.332C194.217 275.355 194.254 275.411 194.317 275.505C200.351 281.427 216.465 287.35 227.838 281.455C239.112 275.611 252.787 258.414 252.394 241.311C251.928 221.012 244.594 205.66 234.971 194.09L232.15 191.006L232.135 190.998C228.804 188.002 226.197 185.956 223.945 184.672C221.639 183.352 219.707 182.833 217.758 182.912C213.98 183.063 209.559 186.588 208.445 188.44C212.612 190.072 216.723 191.477 216.723 191.477C218.403 192.4 220.674 194.048 223.173 196.228C229.962 202.146 238.415 211.976 241.137 221.832C245.371 237.145 248.203 264.134 222.319 277.162C208.722 283.286 194.578 275.534 194.21 275.332Z" fill="#B3E723"/>
<path d="M194.21 275.332C194.217 275.355 194.254 275.411 194.317 275.505C200.351 281.427 216.465 287.35 227.838 281.455C239.112 275.611 252.787 258.414 252.394 241.311C251.928 221.012 244.594 205.66 234.971 194.09L232.15 191.006L232.135 190.998C228.804 188.002 226.197 185.956 223.945 184.672C221.639 183.352 219.707 182.833 217.758 182.912C213.98 183.063 209.559 186.588 208.445 188.44C212.612 190.072 216.723 191.477 216.723 191.477C218.403 192.4 220.674 194.048 223.173 196.228C229.962 202.146 238.415 211.976 241.137 221.832C245.371 237.145 248.203 264.134 222.319 277.162C208.722 283.286 194.578 275.534 194.21 275.332Z" stroke="black" stroke-width="2" stroke-linecap="round" stroke-linejoin="round"/>
<path d="M261.775 270.168C257.023 268.359 249.619 265.524 248.542 265.136C246.919 264.551 245.623 267.885 242.908 270.99C239.957 274.365 237.421 276.609 238.19 277.497C239.837 279.398 248.242 284.29 251.926 285.021C255.611 285.752 264.66 271.027 261.775 270.168Z" fill="#BDEC3B"/>
<path d="M261.775 270.168C257.023 268.359 249.619 265.524 248.542 265.136C246.919 264.551 245.623 267.885 242.908 270.99C239.957 274.365 237.421 276.609 238.19 277.497C239.837 279.398 248.242 284.29 251.926 285.021C255.611 285.752 264.66 271.027 261.775 270.168Z" stroke="black" stroke-width="2" stroke-miterlimit="10"/>
<path d="M242.638 196.319C246.372 201.445 249.605 208.406 250.373 210.271L242.638 196.319Z" fill="white"/>
<path d="M242.638 196.319C246.372 201.445 249.605 208.406 250.373 210.271" stroke="black" stroke-width="2" stroke-linecap="round" stroke-linejoin="round"/>
<path d="M252.724 217.688C252.332 215.684 251.773 214.084 251.773 214.084L252.724 217.688Z" fill="white"/>
<path d="M252.724 217.688C252.332 215.684 251.773 214.084 251.773 214.084" stroke="black" stroke-width="2" stroke-linecap="round" stroke-linejoin="round"/>
<path d="M257.025 272.191C254.247 271.133 249.918 269.476 249.289 269.249C248.34 268.907 247.582 270.856 245.995 272.671C244.27 274.645 242.786 275.957 243.236 276.476C244.199 277.587 249.113 280.448 251.267 280.875C253.421 281.302 258.712 272.693 257.025 272.191Z" fill="#BDEC3B"/>
<path d="M257.025 272.191C254.247 271.133 249.918 269.476 249.289 269.249C248.34 268.907 247.582 270.856 245.995 272.671C244.27 274.645 242.786 275.957 243.236 276.476C244.199 277.587 249.113 280.448 251.267 280.875C253.421 281.302 258.712 272.693 257.025 272.191Z" stroke="black" stroke-width="2" stroke-miterlimit="10"/>
<path d="M268.582 249.481C263.874 249.225 256.533 248.812 255.472 248.773C253.873 248.714 253.669 252.025 252.148 255.535C250.494 259.35 248.887 262.048 249.817 262.615C251.809 263.83 260.615 265.778 264.076 265.384C267.537 264.989 271.373 249.425 268.582 249.481Z" fill="#BDEC3B"/>
<path d="M268.582 249.481C263.874 249.225 256.533 248.812 255.472 248.773C253.873 248.714 253.669 252.025 252.148 255.535C250.494 259.35 248.887 262.048 249.817 262.615C251.809 263.83 260.615 265.778 264.076 265.384C267.537 264.989 271.373 249.425 268.582 249.481Z" stroke="black" stroke-width="2" stroke-miterlimit="10"/>
<path d="M264.795 252.749C262.13 252.603 257.974 252.369 257.374 252.348C256.468 252.314 256.353 254.189 255.491 256.176C254.555 258.336 253.646 259.863 254.172 260.184C255.3 260.872 260.285 261.975 262.245 261.751C264.204 261.528 266.376 252.716 264.795 252.749Z" fill="#BDEC3B"/>
<path d="M264.795 252.749C262.13 252.603 257.974 252.369 257.374 252.348C256.468 252.314 256.353 254.189 255.491 256.176C254.555 258.336 253.646 259.863 254.172 260.184C255.3 260.872 260.285 261.975 262.245 261.751C264.204 261.528 266.376 252.716 264.795 252.749Z" stroke="black" stroke-width="2" stroke-miterlimit="10"/>
<path d="M210.11 188.004C213.612 189.328 217.178 190.597 217.178 190.597C218.588 191.372 220.15 192.361 222.363 194.185C222.317 193.668 222 192.644 221.598 192.122C219.626 189.56 216.329 187.776 217.013 186.918C217.699 186.06 221.233 185.199 223.255 185.467C221.318 184.358 219.45 183.74 217.813 183.806C214.639 183.933 211.045 186.449 210.11 188.004Z" fill="white"/>
<path d="M249.516 271.392C248.456 273.112 246.143 275.693 246.143 275.693" stroke="#B3E723" stroke-width="2" stroke-linecap="round" stroke-linejoin="round"/>
<path d="M258.403 254.625C257.982 256.203 256.79 258.74 256.79 258.74" stroke="#B3E723" stroke-width="2" stroke-linecap="round" stroke-linejoin="round"/>
<path d="M122.987 273.525C123.203 273.682 123.439 273.843 123.691 274.014C127.61 276.624 135.77 280.653 144.11 282.585C147.593 283.389 151.109 283.827 154.36 283.645C167.612 284.02 182.956 278.548 192.798 269.245C196.492 265.755 199.411 261.722 201.155 257.26C201.155 257.26 219.509 222.942 202.581 194.026C201.893 192.842 201.141 191.67 200.327 190.508C194.297 181.877 173.242 177.077 153.153 175.996C144.155 175.515 135.35 175.776 128.183 176.776C120.416 177.858 114.565 179.807 112.457 182.606C104.064 193.765 118.016 269.949 122.987 273.525Z" fill="#BDEC3B"/>
<path d="M122.987 273.525C123.203 273.682 123.439 273.843 123.691 274.014C127.61 276.624 135.77 280.653 144.11 282.585C147.593 283.389 151.109 283.827 154.36 283.645C167.612 284.02 182.956 278.548 192.798 269.245C196.492 265.755 199.411 261.722 201.155 257.26C201.155 257.26 219.509 222.942 202.581 194.026C201.893 192.842 201.141 191.67 200.327 190.508C194.297 181.877 173.242 177.077 153.153 175.996C144.155 175.515 135.35 175.776 128.183 176.776C120.416 177.858 114.565 179.807 112.457 182.606C104.064 193.765 118.016 269.949 122.987 273.525Z" stroke="black" stroke-width="2" stroke-linecap="round" stroke-linejoin="round"/>
<path d="M152.687 230.272C178.952 238.299 192.268 262.362 192.798 269.246C196.492 265.755 200.263 263.247 202.007 258.784C202.007 258.784 211.845 239.795 211.362 219.689C211.159 211.178 207.615 202.626 202.581 194.027C202.979 201.403 202.038 209.747 197.236 216.106C196.556 217.009 195.798 217.869 194.953 218.685C182.154 231.042 163.887 225.381 154.68 223.24C145.472 221.103 124.622 221.697 152.687 230.272Z" fill="#B2C18A"/>
<path d="M192.798 269.246C196.492 265.755 201.641 261.411 203.385 256.949C203.385 256.949 210.216 240.321 209.733 220.215C209.53 211.704 207.615 202.626 202.581 194.027C202.979 201.403 202.038 209.747 197.236 216.106C197.643 224.429 191.513 230.58 181.087 232.149C192.262 238.656 196.717 256.505 192.798 269.246Z" fill="#7A8361"/>
<path d="M209.713 220.257C209.509 211.746 207.595 202.668 202.56 194.068C203.015 202.491 201.722 212.175 194.932 218.726C182.134 231.084 163.866 225.423 154.66 223.281C145.451 221.144 124.601 221.738 152.666 230.314C178.932 238.341 192.247 262.404 192.778 269.287C196.472 265.796 200.749 261.91 202.493 257.448" stroke="black" stroke-width="2" stroke-linecap="round" stroke-linejoin="round"/>
<path d="M168.205 230.765C173.745 232.41 182.447 232.607 190.476 229.118L168.205 230.765Z" fill="#B2C18A"/>
<path d="M168.205 230.765C173.745 232.41 182.447 232.607 190.476 229.118" stroke="black" stroke-width="2" stroke-linecap="round" stroke-linejoin="round"/>
<path d="M205.709 212.969C205.465 216.078 203.231 219.651 201.877 220.979L205.709 212.969Z" fill="#B2C18A"/>
<path d="M205.709 212.969C205.465 216.078 203.231 219.651 201.877 220.979" stroke="black" stroke-width="2" stroke-linecap="round" stroke-linejoin="round"/>
<path d="M178.998 231.834C183.703 232.701 187.592 237.684 187.592 237.684L178.998 231.834Z" fill="white"/>
<path d="M178.998 231.834C183.703 232.701 187.592 237.684 187.592 237.684" stroke="black" stroke-width="2" stroke-linecap="round" stroke-linejoin="round"/>
<path d="M145.659 208.531C143.588 205.915 141.827 202.698 140.319 199.195C137.336 192.258 135.345 184.191 133.93 177.387C132.56 170.789 131.736 165.382 131.081 163.352C130.146 160.455 122.571 156.075 115.401 146.296C113.975 144.798 112.826 143 112.073 140.949C111.999 140.754 111.932 140.556 111.867 140.354C110.025 134.645 111.652 128.652 115.585 124.652C117.288 122.916 119.425 121.557 121.902 120.758C128.728 118.555 135.965 121.322 139.709 127.05C139.598 126.872 139.485 126.696 139.368 126.524C143.99 131.656 150.046 135.246 157.327 138.384C165.221 141.787 170.909 141.387 180.847 152.15C190.783 162.909 197.491 181.276 199.612 187.852C203.962 201.331 197.126 212.589 186.916 216.426" fill="#BDEC3B"/>
<path d="M145.659 208.531C143.588 205.915 141.827 202.698 140.319 199.195C137.336 192.258 135.345 184.191 133.93 177.387C132.56 170.789 131.736 165.382 131.081 163.352C130.146 160.455 122.571 156.075 115.401 146.296C113.975 144.798 112.826 143 112.073 140.949C111.999 140.754 111.932 140.556 111.867 140.354C110.025 134.645 111.652 128.652 115.585 124.652C117.288 122.916 119.425 121.557 121.902 120.758C128.728 118.555 135.965 121.322 139.709 127.05C139.598 126.872 139.485 126.696 139.368 126.524C143.99 131.656 150.046 135.246 157.327 138.384C165.221 141.787 170.909 141.387 180.847 152.15C190.783 162.909 197.491 181.276 199.612 187.852C203.962 201.331 197.126 212.589 186.916 216.426" stroke="black" stroke-width="2" stroke-miterlimit="10"/>
<path d="M112.383 139.92C112.437 140.114 112.493 140.304 112.555 140.492C113.223 142.586 114.32 144.433 115.724 145.964L115.728 145.966C118.528 149.02 122.547 150.806 126.778 150.754C128.015 150.739 129.272 150.564 130.52 150.22C138.372 148.056 142.984 139.935 140.82 132.083C138.656 124.232 130.535 119.62 122.683 121.784C120.307 122.439 118.228 123.637 116.546 125.211C112.66 128.836 110.874 134.442 112.383 139.92Z" fill="#BDEC3B"/>
<path d="M112.03 140.665C112.172 141.181 112.339 141.685 112.529 142.174C110.892 139.161 109.366 135.764 108.075 131.913C106.137 126.13 104.722 119.335 104.249 111.319C103.784 101.088 112.352 95.0612 120.084 95.3488C122.298 95.4313 124.444 96.0292 126.29 97.1969C129.132 98.992 131.264 102.14 131.834 106.813C132.82 114.908 135.118 121.088 138.558 126.057" fill="#BDEC3B"/>
<path d="M111.774 140.742C112.842 142.838 113.971 144.757 115.12 146.518L115.124 146.52C112.036 133.58 115.536 131.671 114.854 125.327C114.172 118.983 115.29 117.604 114.581 110.169C113.873 102.734 120.084 95.3485 126.555 98.1544C118.263 92.9108 103.653 98.1549 104.251 111.318C104.992 123.838 108.02 133.384 111.774 140.742Z" fill="#B3E723"/>
<path d="M108.076 131.913C106.333 122.922 107.224 110.485 109.358 104.736C110.999 100.303 116.079 96.8933 120.085 95.3487C112.353 95.0611 103.785 101.087 104.25 111.318C104.723 119.335 106.138 126.13 108.076 131.913Z" fill="white"/>
<path d="M140.505 128.993C139.642 127.492 138.558 126.056 138.558 126.056C135.118 121.088 132.82 114.908 131.834 106.813C131.264 102.14 129.132 98.9919 126.29 97.1968C124.444 96.0291 122.298 95.4312 120.084 95.3488C112.352 95.0612 103.785 101.087 104.25 111.318C104.723 119.335 106.137 126.13 108.075 131.913C109.366 135.764 110.27 138.657 111.907 141.671C111.907 141.671 113.657 145.11 115.478 146.243" stroke="black" stroke-width="2" stroke-linecap="round" stroke-linejoin="round"/>
<path d="M135.647 123.383C130.783 125.081 128.227 127.357 127.137 128.896" stroke="black" stroke-width="2" stroke-linecap="round" stroke-linejoin="round"/>
<path d="M137.745 126.393C134.712 127.451 133.119 128.871 132.439 129.83" stroke="black" stroke-width="2" stroke-linecap="round" stroke-linejoin="round"/>
<g style="mix-blend-mode:multiply">
<path d="M122.619 271.838L123.692 274.013C127.61 276.624 135.77 280.653 144.111 282.585C148.92 276.932 150.052 269.515 150.052 269.515C166.518 262.367 168.992 251.647 166.029 241.854C163.066 232.057 155.783 230.122 155.783 230.122C155.783 230.122 175.174 203.823 154.003 190.066C155.49 184.283 155.285 179.726 153.154 175.996C151.115 172.42 147.306 169.602 141.529 167.185C136.759 165.191 132.075 170.152 128.183 176.776C122.437 186.552 118.421 199.95 118.421 199.95L122.694 258.625L122.619 271.838Z" fill="#A1CE25"/>
</g>
<path d="M86.1806 199.488L96.6542 194.375L114.701 195.292C114.701 195.292 116.574 195.411 119.447 195.421C127.16 195.452 142.087 194.701 147.482 188.754C154.886 180.592 146.996 170.428 141.529 167.185C139.909 166.223 135.731 165.359 130.502 164.667C118.107 163.022 99.7948 162.362 95.5349 163.737C89.479 165.691 77.0859 174.513 77.9114 179.848C78.7326 185.185 86.5402 194.116 86.1806 199.488Z" fill="#5C7B09"/>
<path d="M86.1806 199.488L96.6542 194.375L114.701 195.292C114.701 195.292 116.574 195.411 119.447 195.421C127.16 195.452 142.087 194.701 147.482 188.754C154.886 180.592 146.996 170.428 141.529 167.185C139.909 166.223 135.731 165.359 130.502 164.667C118.107 163.022 99.7948 162.362 95.5349 163.737C89.479 165.691 77.0859 174.513 77.9114 179.848C78.7326 185.185 86.5402 194.116 86.1806 199.488Z" stroke="black" stroke-width="2" stroke-linecap="round" stroke-linejoin="round"/>
<path d="M85.9105 198.651L96.3413 193.404L101.406 193.804L114.556 194.84C114.556 194.84 116.446 195.014 119.342 195.097C130.2 192.787 139.277 189.918 139.804 186.804C140.929 180.145 136.248 167.999 129.721 162.249C118.982 160.467 103.877 159.357 97.0951 159.938C95.9607 160.035 95.0608 160.182 94.4512 160.378C88.3953 162.333 75.2811 171.797 76.2458 177.564C77.2062 183.332 86.304 194.201 85.9105 198.651Z" fill="#BDEC3B"/>
<path d="M108.814 243.731C108.814 243.731 133.905 238.485 144.624 238.495C144.662 238.495 144.694 238.494 144.727 238.496C155.406 238.566 161.269 234.721 161.13 227.929C160.991 221.137 153.063 215.248 144.916 213.827C143.921 213.653 142.603 213.596 141.04 213.632C129.789 213.889 105.862 219.053 99.1533 221.561C91.5085 224.418 90.3539 233.503 91.0603 236.987C91.7664 240.471 104.694 245.208 108.814 243.731Z" fill="#5C7B09"/>
<path d="M108.814 243.731C108.814 243.731 133.905 238.485 144.624 238.495C144.662 238.495 144.694 238.494 144.727 238.496C155.406 238.566 161.269 234.721 161.13 227.929C160.991 221.137 153.063 215.248 144.916 213.827C143.921 213.653 142.603 213.596 141.04 213.632C129.789 213.889 105.862 219.053 99.1533 221.561C91.5085 224.418 90.3539 233.503 91.0603 236.987C91.7664 240.471 104.694 245.208 108.814 243.731Z" stroke="black" stroke-width="2" stroke-linecap="round" stroke-linejoin="round"/>
<path d="M127.407 274.167C135.091 272.079 135.588 265.85 135.588 265.85C138.695 265.191 143.953 262.851 148.715 259.792C154.739 255.926 159.97 250.914 159.082 246.721C157.785 240.588 151.428 237.45 139.893 239.519C137.304 239.985 134.452 240.714 131.339 241.732C119.665 245.542 114.379 247.204 111.62 248.094C108.866 248.983 102.684 253.67 103.994 258.232C105.305 262.799 115.569 278.004 127.407 274.167Z" fill="#5C7B09"/>
<path d="M127.407 274.167C135.091 272.079 135.588 265.85 135.588 265.85C138.695 265.191 143.953 262.851 148.715 259.792C154.739 255.926 159.97 250.914 159.082 246.721C157.785 240.588 151.428 237.45 139.893 239.519C137.304 239.985 134.452 240.714 131.339 241.732C119.665 245.542 114.379 247.204 111.62 248.094C108.866 248.983 102.684 253.67 103.994 258.232C105.305 262.799 115.569 278.004 127.407 274.167Z" stroke="black" stroke-width="2" stroke-linecap="round" stroke-linejoin="round"/>
<path d="M98.3513 222.019C98.3513 222.019 117.151 219.67 122.859 218.415C127.32 217.436 134.668 215.761 142.33 215.062C144.468 214.868 146.636 214.751 148.771 214.745C158.544 214.722 166.642 198.309 154.003 190.066C150.711 187.919 145.906 186.809 140.459 186.375C124.989 185.15 104.33 189.368 98.4276 190.694C90.4517 192.485 83.5427 203.91 84.0039 207.866C84.4663 211.825 95.0995 222.676 98.3513 222.019Z" fill="#5C7B09"/>
<path d="M98.3513 222.019C98.3513 222.019 117.151 219.67 122.859 218.415C127.32 217.436 134.668 215.761 142.33 215.062C144.468 214.868 146.636 214.751 148.771 214.745C158.544 214.722 166.642 198.309 154.003 190.066C150.711 187.919 145.906 186.809 140.459 186.375C124.989 185.15 104.33 189.368 98.4276 190.694C90.4517 192.485 83.5427 203.91 84.0039 207.866C84.4663 211.825 95.0995 222.676 98.3513 222.019Z" stroke="black" stroke-width="2" stroke-linecap="round" stroke-linejoin="round"/>
<path d="M83.4826 191.916C84.9712 194.634 86.0512 197.056 85.9114 198.651L96.3419 193.404L101.406 193.803C101.673 191.954 100.979 190.026 98.9475 188.056C86.1854 179.287 88.8432 165.025 97.1002 159.943C97.1002 159.943 97.1002 159.943 97.0949 159.938C95.9603 160.034 95.0613 160.18 94.452 160.377C92.5427 160.993 89.9343 162.353 87.2885 164.109C81.5307 167.928 75.587 173.612 76.2463 177.562C76.8614 181.263 80.8215 187.058 83.4826 191.916Z" fill="#B3E723"/>
<path d="M83.4827 191.916C83.5763 186.921 82.8635 180.923 80.8175 177.468C78.7946 174.052 83.589 168.248 88.592 163.688C82.8341 167.507 75.5871 173.612 76.2464 177.562C76.8615 181.263 80.8216 187.058 83.4827 191.916Z" fill="white"/>
<path d="M85.9105 198.651L96.3413 193.404L101.406 193.804L114.556 194.84C114.556 194.84 116.446 195.014 119.342 195.097C130.2 192.787 139.277 189.918 139.804 186.804C140.929 180.145 136.248 167.999 129.721 162.249C118.982 160.467 103.877 159.357 97.0951 159.938C95.9607 160.035 95.0608 160.182 94.4512 160.378C88.3953 162.333 75.2811 171.797 76.2458 177.564C77.2062 183.332 86.304 194.201 85.9105 198.651Z" stroke="black" stroke-width="2" stroke-linecap="round" stroke-linejoin="round"/>
<path d="M96.5644 221.954C96.5644 221.954 112.281 220.11 119.665 218.824C120.469 218.684 121.174 218.55 121.749 218.425C126.33 217.436 133.872 215.747 141.75 215.098C144.23 211.991 147.434 206.234 146.782 200.256C146.082 193.816 142.338 187.912 139.467 184.554C123.528 183.056 102.313 187.29 96.2538 188.626C96.0488 188.67 95.8425 188.723 95.6395 188.784C87.7215 191.037 81.1062 202.612 81.6178 206.717C82.1445 210.936 93.2265 222.614 96.5644 221.954Z" fill="#B3E723"/>
<path d="M93.8153 205.407C97.6507 217.294 109.905 219.024 109.905 219.024L119.665 218.824C120.469 218.684 121.174 218.55 121.749 218.425C126.33 217.437 133.872 215.747 141.75 215.098C144.23 211.992 147.434 206.234 146.782 200.257C146.082 193.816 142.338 187.912 139.467 184.554C123.528 183.056 102.313 187.29 96.2537 188.626C96.0486 188.671 95.8424 188.723 95.6394 188.785C93.1064 192.887 91.3161 197.663 93.8153 205.407Z" fill="#BDEC3B"/>
<path d="M89.5507 217.689C89.6443 212.694 88.0592 208.756 86.0131 205.3C83.9902 201.884 89.1105 194.557 94.1134 189.997C88.3556 193.816 80.9827 201.76 81.6419 205.71C82.257 209.411 84.7263 213.347 89.5507 217.689Z" fill="white"/>
<path d="M96.5644 221.954C96.5644 221.954 112.281 220.11 119.665 218.824C120.469 218.684 121.174 218.55 121.749 218.425C126.33 217.436 133.872 215.747 141.75 215.098C144.23 211.991 147.434 206.234 146.782 200.256C146.082 193.816 142.338 187.912 139.467 184.554C123.528 183.056 102.313 187.29 96.2538 188.626C96.0488 188.67 95.8425 188.723 95.6395 188.784C87.7215 191.037 81.1062 202.612 81.6178 206.717C82.1445 210.936 93.2265 222.614 96.5644 221.954Z" stroke="black" stroke-width="2" stroke-linecap="round" stroke-linejoin="round"/>
<path d="M110.102 247.719C110.102 247.719 112.018 246.946 115.005 245.846C122.532 243.072 136.867 238.219 144.591 238.386C146.371 234.372 148.109 229.142 147.208 225.36C146.02 220.372 143.604 215.64 140.474 211.88C130.532 211.919 110.813 215.785 101.625 218.44C100.355 218.807 99.2894 219.15 98.4744 219.457C90.8384 222.338 89.1655 232.695 89.9472 236.411C90.7267 240.131 105.984 249.206 110.102 247.719Z" fill="#B3E723"/>
<path d="M136.295 260.852C139.399 263.726 143.832 270.552 140.52 276.551" stroke="black" stroke-width="2" stroke-linecap="round" stroke-linejoin="round"/>
<path d="M99.8758 244.633C96.758 241.439 95.1522 238.18 93.9697 234.342C92.7962 230.534 92.2316 225.518 97.2345 220.959C91.4767 224.778 89.3701 231.023 90.0294 234.972C90.6445 238.674 95.0513 240.291 99.8758 244.633Z" fill="white"/>
<path d="M127.678 275.008C135.369 272.944 135.746 266.343 135.746 266.343L135.763 266.338C136.081 266.275 136.424 266.189 136.783 266.087C139.948 265.203 144.6 262.997 148.836 260.173C149.342 257.29 149.653 252.434 147.718 247.075C145.916 242.08 142.287 239.65 139.562 238.486C136.964 238.932 134.109 239.649 130.998 240.667C119.324 244.48 114.035 246.14 111.279 247.03C111.018 247.114 110.729 247.232 110.418 247.383C107.433 248.836 102.527 253.232 103.801 257.638C105.21 262.507 115.843 278.845 127.678 275.008Z" fill="#B3E723"/>
<path d="M100.907 233.317C103.683 240.271 106.272 244.771 115.005 245.845C122.532 243.071 136.867 238.219 144.591 238.385C146.371 234.371 148.109 229.141 147.209 225.359C146.02 220.372 143.605 215.64 140.474 211.879C130.532 211.918 110.813 215.784 101.625 218.439C99.5344 222.841 98.6869 227.763 100.907 233.317Z" fill="#BDEC3B"/>
<path d="M110.102 247.719C110.102 247.719 112.018 246.946 115.005 245.846C122.532 243.072 136.867 238.219 144.591 238.386C146.371 234.372 148.109 229.142 147.208 225.36C146.02 220.372 143.604 215.64 140.474 211.88C130.532 211.919 110.813 215.785 101.625 218.44C100.355 218.807 99.2894 219.15 98.4744 219.457C90.8384 222.338 89.1655 232.695 89.9472 236.411C90.7267 240.131 105.984 249.206 110.102 247.719Z" stroke="black" stroke-width="2" stroke-linecap="round" stroke-linejoin="round"/>
<path d="M111.433 256.718C116.025 265.018 123.374 270.367 135.746 266.343L135.763 266.338C136.115 266.224 136.454 266.14 136.783 266.087C139.948 265.203 144.6 262.997 148.836 260.173C149.342 257.29 149.653 252.434 147.718 247.075C145.916 242.08 142.286 239.65 139.562 238.486C136.964 238.932 134.109 239.649 130.998 240.667C119.324 244.48 114.035 246.14 111.279 247.03C111.018 247.114 110.729 247.232 110.418 247.383C109.471 249.89 109.386 253.015 111.433 256.718Z" fill="#BDEC3B"/>
<path d="M127.678 275.008C135.369 272.944 135.746 266.343 135.746 266.343L135.763 266.338C136.081 266.275 136.424 266.189 136.783 266.087C139.948 265.203 144.6 262.997 148.836 260.173C149.342 257.29 149.653 252.434 147.718 247.075C145.916 242.08 142.287 239.65 139.562 238.486C136.964 238.932 134.109 239.649 130.998 240.667C119.324 244.48 114.035 246.14 111.279 247.03C111.018 247.114 110.729 247.232 110.418 247.383C107.433 248.836 102.527 253.232 103.801 257.638C105.21 262.507 115.843 278.845 127.678 275.008Z" stroke="black" stroke-width="2" stroke-linecap="round" stroke-linejoin="round"/>
<path d="M135.495 266.423C129.926 267.839 124.237 268.005 120.696 265.886" stroke="black" stroke-width="2" stroke-linecap="round" stroke-linejoin="round"/>
<path d="M95.7795 160.089C89.6785 164.406 90.1402 172.863 90.1402 172.863" stroke="black" stroke-width="2" stroke-linecap="round" stroke-linejoin="round"/>
<path d="M95.6393 188.785C91.1328 193.645 93.0525 203.044 93.4338 204.225" stroke="black" stroke-width="2" stroke-linecap="round" stroke-linejoin="round"/>
<path d="M104.196 217.737C99.8798 216.575 96.8007 212.288 96.8007 212.288" stroke="black" stroke-width="2" stroke-linecap="round" stroke-linejoin="round"/>
<path d="M113.424 246.336C106.531 243.658 103.642 239.485 102.569 237.121" stroke="black" stroke-width="2" stroke-linecap="round" stroke-linejoin="round"/>
<path d="M101.951 218.334C98.6768 221.913 99.6518 228.079 99.6518 228.079" stroke="black" stroke-width="2" stroke-linecap="round" stroke-linejoin="round"/>
<path d="M110.418 247.383C107.36 249.469 109.39 254.415 111.318 257.476" stroke="black" stroke-width="2" stroke-linecap="round" stroke-linejoin="round"/>
<path d="M82.8062 206.289C83.3483 206.301 83.916 206.852 83.9054 207.355C83.916 206.852 84.4422 206.285 84.9712 206.256C84.4661 206.26 83.8729 205.637 83.872 205.19C83.8722 205.588 83.3479 206.277 82.8062 206.289Z" fill="#B3E723"/>
<path d="M212.259 183.504C214.248 183.599 215.571 186.716 215.571 186.716C215.571 186.716 216.729 183.51 218.782 183.404C216.725 183.307 215.47 180.193 215.47 180.193C215.47 180.193 214.449 183.444 212.259 183.504Z" fill="#B3E723"/>
<path d="M111.03 101.344C111.249 101.354 111.395 101.698 111.395 101.698C111.395 101.698 111.523 101.344 111.749 101.333C111.522 101.322 111.384 100.979 111.384 100.979C111.384 100.979 111.271 101.337 111.03 101.344Z" fill="#B3E723"/>
<path d="M116.647 53.3042L117.152 52.3557" stroke="black" stroke-width="2" stroke-linecap="round" stroke-linejoin="round"/>
<path d="M138.358 67.8816L138.655 67.8534" stroke="black" stroke-width="2" stroke-linecap="round" stroke-linejoin="round"/>
<path d="M89.584 53.0231L89.7096 52.9104" stroke="black" stroke-width="2" stroke-linecap="round" stroke-linejoin="round"/>
<path d="M70.2296 67.9518L68.63 66.0331" stroke="black" stroke-width="2" stroke-linecap="round" stroke-linejoin="round"/>
<path d="M66.5171 111.193L66.2182 111.185" stroke="black" stroke-width="2" stroke-linecap="round" stroke-linejoin="round"/>
</g>
</mask>
<g mask="url(#mask2_773_191)">
<g opacity="0.5">
<path d="M280.741 65.6674L204.082 363.943L265.923 362.989L342.583 64.7135L280.741 65.6674Z" fill="white"/>
</g>
</g>
</g>
</g>
<defs>
<filter id="filter0_d_773_191" x="63.3182" y="51.3555" width="228" height="258.219" filterUnits="userSpaceOnUse" color-interpolation-filters="sRGB">
<feFlood flood-opacity="0" result="BackgroundImageFix"/>
<feColorMatrix in="SourceAlpha" type="matrix" values="0 0 0 0 0 0 0 0 0 0 0 0 0 0 0 0 0 0 127 0" result="hardAlpha"/>
<feOffset dy="4"/>
<feGaussianBlur stdDeviation="0.95"/>
<feComposite in2="hardAlpha" operator="out"/>
<feColorMatrix type="matrix" values="0 0 0 0 0 0 0 0 0 0 0 0 0 0 0 0 0 0 0.25 0"/>
<feBlend mode="normal" in2="BackgroundImageFix" result="effect1_dropShadow_773_191"/>
<feBlend mode="normal" in="SourceGraphic" in2="effect1_dropShadow_773_191" result="shape"/>
</filter>
</defs>
</svg>
